<?xml version="1.0" encoding="utf-8"?>
<!-- Generator: Adobe Illustrator 27.5.0, SVG Export Plug-In . SVG Version: 6.00 Build 0)  -->
<svg version="1.1" xmlns="http://www.w3.org/2000/svg" xmlns:xlink="http://www.w3.org/1999/xlink" x="0px" y="0px"
	 viewBox="0 0 500 500" style="enable-background:new 0 0 500 500;" xml:space="preserve">
<g id="BACKGROUND">
	<rect id="XMLID_2_" style="fill:#F7F3ED;" width="500" height="500"/>
</g>
<g id="OBJECTS">
	<g style="opacity:0.38;">
		<circle style="fill:#7AB8FF;" cx="250" cy="250" r="197.543"/>
		<g>
			<defs>
				<circle id="SVGID_1_" cx="250" cy="250" r="197.543"/>
			</defs>
			<clipPath id="SVGID_00000181799515557801802790000011594981177586783912_">
				<use xlink:href="#SVGID_1_"  style="overflow:visible;"/>
			</clipPath>
			<g style="clip-path:url(#SVGID_00000181799515557801802790000011594981177586783912_);">
				<path style="fill:#3884F5;" d="M57.314,171.055c2.043,2.896-0.254,7.981,2.726,9.901c0.973,0.627,2.335,0.709,3.006,1.653
					c0.439,0.617,0.446,1.438,0.735,2.138c0.845,2.047,3.602,2.373,5.287,3.81c2.777,2.368,1.903,6.729,1.549,10.362
					c-0.633,6.519,1.361,13.256,5.44,18.379c1.018,1.278,2.789,2.548,4.127,1.609c0.532-0.374,0.81-1.01,0.996-1.633
					c1.301-4.343-0.688-8.976-3.135-12.793c-1.18-1.841-2.493-3.637-3.192-5.709c-0.699-2.072-0.682-4.535,0.663-6.259
					c0.305-0.392,0.693-0.748,1.173-0.875c1.37-0.362,2.427,1.197,2.905,2.531c2.084,5.816,2.67,12.775,7.521,16.6
					c2.158,1.702,5.104,2.719,6.226,5.228c0.477,1.066,0.544,2.263,0.619,3.428c0.244,3.808,0.667,7.686,2.253,11.157
					c1.586,3.471,4.528,6.516,8.256,7.328c3.324,0.724,6.78-0.386,9.822-1.908c1.6-0.801,3.431-1.741,5.081-1.051
					c3.142,1.314,1.872,6.459,4.224,8.922c2.348,2.459,6.469,0.796,9.812,1.416c2.938,0.545,5.199,2.91,6.824,5.418
					c1.625,2.507,2.849,5.299,4.838,7.528c0.679,0.761,1.478,1.469,2.458,1.752c1.158,0.335,2.389,0.035,3.588-0.091
					c4.074-0.429,9.977-0.153,10.678,3.883c0.962,5.547,1.83,11.651-1.071,16.475c-2.533,4.212-7.762,7.136-8.039,12.043
					c-0.366,6.48,7.848,9.681,11.133,15.279c1.803,3.072,2.025,6.776,2.689,10.276c0.664,3.499,2.071,7.232,5.211,8.912
					c2.863,1.532,6.529,0.99,9.313,2.661c2.794,1.678,3.936,5.084,4.867,8.208c1.466,4.918,2.947,10.026,2.223,15.106
					c-0.579,4.062-2.547,8.182-1.302,12.092c0.82,2.574,2.945,4.617,3.563,7.247c1.194,5.08-3.57,10.498-1.51,15.293
					c1.445,3.363,5.677,4.775,7.329,8.042c1.593,3.15,0.318,6.907,0.165,10.434c-0.221,5.113,1.995,9.979,4.163,14.615
					c2.386,5.103,4.829,10.293,8.642,14.44c3.813,4.146,9.282,7.159,14.891,6.645c0.629-0.058,1.278-0.168,1.797-0.529
					c1.401-0.976,1.111-3.183,0.197-4.625c-0.914-1.443-2.295-2.631-2.787-4.265c-0.867-2.876,1.327-5.914,0.819-8.875
					c-0.369-2.15-2.063-3.779-3.296-5.579c-1.878-2.743-2.758-6.153-2.44-9.462c0.734-7.653,7.243-13.28,13.268-18.056
					c3.7-2.932,7.399-5.865,11.099-8.797c2.977-2.36,6.073-4.873,7.535-8.379c1.759-4.219,0.818-9.003,0.771-13.573
					c-0.047-4.571,1.433-9.899,5.704-11.526c3.2-1.219,6.881,0.105,10.178-0.819c5.872-1.644,7.563-9.012,8.212-15.075
					c0.549-5.125,1.098-10.25,1.647-15.375l0.112-3.246c2.059-2.683,4.74-4.956,6.135-8.037c0.397-0.877,0.684-1.832,0.601-2.791
					c-0.146-1.68-1.403-3.072-2.821-3.984c-4.945-3.181-11.85-1.887-16.707-5.201c-2.076-1.416-3.576-3.558-5.658-4.965
					c-2.995-2.023-6.787-2.292-10.335-2.981c-3.548-0.69-7.369-2.172-8.9-5.446c-0.797-1.705-0.859-3.697-1.752-5.353
					c-1.496-2.776-4.879-3.893-7.992-4.396c-1.658-0.268-3.551-0.563-4.461-1.974c-0.338-0.524-0.493-1.147-0.811-1.684
					c-1.589-2.682-5.732-1.694-8.559-3.008c-3.873-1.799-4.584-7.595-8.5-9.299c-2.203-0.959-4.724-0.3-7.103,0.031
					c-5.137,0.713-10.493-0.239-15.07-2.678c-1.06-0.565-2.116-1.243-2.747-2.266c-0.38-0.615-0.6-1.348-1.132-1.838
					c-1.125-1.039-2.951-0.469-4.25,0.341c-3.154,1.969-5.503,4.969-8.304,7.413c-2.801,2.444-6.485,4.412-10.117,3.618
					c-3.606-0.788-6.183-4.176-7.114-7.747c-0.642-2.464-0.713-5.141-0.446-7.666c0.184-1.738,1.366-3.738,1.296-5.363
					c-0.093-2.175-2.622-3.353-4.788-3.577c-2.166-0.224-4.578-0.066-6.253-1.458c0.271-2.126,2.15-3.617,3.331-5.405
					c1.181-1.788,1.217-4.879-0.856-5.419c-0.725-0.189-1.49,0.022-2.192,0.283c-4.621,1.719-8.172,5.566-12.706,7.504
					c-4.534,1.938-11.275,0.679-12.168-4.17c-0.634-3.447,2.064-6.639,2.372-10.131c0.306-3.476-1.768-7.103-0.459-10.338
					c1.51-3.732,6.373-4.48,10.395-4.666c6.341-0.293,12.681-0.587,19.022-0.88c0.731-0.034,1.485-0.064,2.17,0.191
					c2.321,0.866,2.374,4.088,3.631,6.222c1.132,1.921,3.535,3.002,5.723,2.572c2.188-0.429,4.005-2.337,4.328-4.544
					c0.225-1.544-0.184-3.271,0.68-4.571c0.575-0.866,1.588-1.318,2.561-1.685c4.19-1.579,9.15-2.762,11.243-6.721
					c1.393-2.634,1.094-5.864,2.221-8.622c1.716-4.201,6.224-6.377,9.867-9.083c7.868-5.844,12.971-15.54,22.133-19.022
					c2.048-0.778,4.252-1.218,6.113-2.375c1.861-1.158,3.344-3.339,2.805-5.463c-0.505-1.987-2.637-3.492-2.449-5.533
					c0.273-2.971,4.734-3.128,7.302-1.608c2.568,1.519,5.256,3.903,8.102,3.009c1.448-0.455,2.722-1.747,4.22-1.502
					c2.833,0.464,2.043,4.668,2.479,7.506c0.568,3.7,5.184,6.129,8.555,4.501c1.438-0.694,2.643-2.23,2.312-3.792
					c-0.538-2.532-4.453-3.251-4.839-5.811c-0.405-2.682,3.176-3.922,4.971-5.956c2.394-2.713,0.785-7.775-2.736-8.609
					c-1.506-0.356-3.458-0.239-4.154-1.621c-0.323-0.641-0.229-1.404-0.116-2.113c0.407-2.548,0.7-5.744-1.478-7.127
					c-2.13-1.353-4.847,0.168-6.976,1.522c-2.129,1.354-5.195,2.474-6.921,0.633c-1.336-1.426-0.9-3.682-1.183-5.616
					c-0.583-3.98-4.892-6.852-8.872-6.271c-3.98,0.581-7.179,4.182-7.746,8.164c-0.434,3.048,0.315,6.638-1.842,8.834
					c-2.405,2.448-6.931,1.445-9.373,3.855c-1.311,1.294-1.683,3.271-2.797,4.738c-2.639,3.48-9.316,1.846-10.051-2.459
					c-0.201-1.178-0.029-2.42-0.413-3.551c-1.547-4.553-9.396-2.814-12.113-6.782c-1.318-1.924-0.876-4.64,0.433-6.57
					c1.309-1.93,3.318-3.252,5.273-4.523c4.512-2.932,9.868-5.99,14.971-4.281c2.29,0.766,5.21,2.29,6.716,0.403
					c0.446-0.558,0.635-1.339,1.235-1.728c0.883-0.572,2.018,0.036,3.058,0.198c3.518,0.549,5.412-3.801,7.49-6.693
					c3.711-5.167,11.648-6.674,16.995-3.228c1.258,0.811,2.467,2.084,2.325,3.574c-0.221,2.317-3.472,3.451-3.641,5.772
					c-0.11,1.519,1.177,2.752,2.427,3.622c2.223,1.547,4.809,2.764,7.517,2.713c2.708-0.05,5.511-1.636,6.337-4.216
					c0.28-0.876,0.394-1.921,1.155-2.437c0.647-0.439,1.504-0.305,2.284-0.25c2.649,0.19,5.36-0.784,7.283-2.616
					c0.394-0.375,0.771-0.814,0.864-1.35c0.253-1.457-1.622-2.35-3.1-2.305c-1.478,0.045-3.137,0.442-4.307-0.462
					c1.206-4.29,1.867-10.009-2.035-12.162c-1.009-0.557-2.174-0.746-3.313-0.927c-7.612-1.207-15.284-2.419-22.984-2.102
					c-1.878,0.077-3.869,0.289-5.357,1.438c-1.708,1.32-2.361,3.558-2.948,5.635c-0.587,2.077-1.323,4.311-3.11,5.522
					c-1.787,1.211-4.882,0.53-5.163-1.611c-0.225-1.717,1.343-3.061,2.576-4.276c1.234-1.216,2.251-3.31,1.034-4.543
					c-0.447-0.452-1.089-0.642-1.708-0.789c-4.824-1.145-10.015-0.677-14.557,1.312c0.066,3.287,0.558,6.566,1.459,9.728
					c-4.04,2.796-9.052,4.156-13.952,3.787c-1.702-0.128-3.485-0.505-4.739-1.663c-1.254-1.157-1.724-3.296-0.609-4.588
					c0.593-0.687,1.491-1.012,2.348-1.311c2.672-0.929,5.344-1.859,8.016-2.788c1.186-0.412,2.541-1.004,2.83-2.226
					c0.367-1.552-1.343-2.875-2.929-3.042c-4.879-0.513-9.649,5.179-13.979,2.872c-1.621-0.864-2.523-2.626-3.843-3.902
					c-2.393-2.313-6.068-2.87-9.338-2.25c-3.267,0.62-6.239,2.256-9.147,3.869c-4.176,2.316-0.977,3.664,1.915,3.842
					c3.801,0.234,4.628,0.12,5.847,3.903c0.66,2.05,3.599,1.929,5.639,1.241c0.797-0.269,1.786-0.524,2.391,0.061
					c0.71,0.685,0.253,1.897-0.378,2.656c-3.072,3.699-9.593,3.657-12.618-0.08c-0.897-1.108-1.611-2.535-2.964-2.984
					c-1.685-0.559-3.437,0.695-5.212,0.691c-3.092-0.006-4.834-3.599-5.223-6.667c-0.139-1.096-0.209-2.227-0.672-3.23
					c-0.463-1.003-1.441-1.866-2.544-1.805c-0.684,0.038-1.296,0.415-1.875,0.781c-14.827,9.366-28.035,18.046-39.791,31.283
					c-7.935,8.934-15.435,18.244-22.931,27.549c-3.052,3.788-6.129,7.615-8.296,11.971
					C59.246,158.191,58.367,164.179,57.314,171.055z"/>
				<path style="fill:#3884F5;" d="M430.983,180.893c-3.323-0.378-6.691-2.316-7.755-5.487c-0.633-1.887-0.391-3.951-0.744-5.909
					c-0.353-1.959-1.687-4.048-3.676-4.105c-2.875-0.083-3.987,3.699-4.027,6.575c-0.039,2.876-0.571,6.618-3.395,7.165
					c-1.849,0.358-3.636-1.095-4.421-2.806s-0.849-3.649-1.138-5.51c-1.387-8.962-8.731-16.694-17.61-18.54
					c-0.799-0.166-1.667-0.281-2.403,0.071c-2.053,0.982-1.163,4.11,0.196,5.935c1.807,2.426,3.941,4.607,6.328,6.466
					c3.94,3.069,6.072,5.049,6.13,10.267c0.004,0.376-0.024,0.799-0.303,1.051c-0.837,0.756-1.987-1.052-3.079-0.773
					c-2.404,0.613-2.511,3.294-5.775,3.124c-1.803-0.094-6.139-1.505-4.96-4.103c0.952-2.098,4.899-1.284,5.659-3.458
					c0.633-1.811-1.654-3.138-3.393-3.949c-3.056-1.424-5.691-3.736-7.501-6.58c-0.38-0.597-0.792-1.27-1.475-1.455
					c-0.588-0.159-1.2,0.097-1.755,0.348c-3.037,1.371-6.075,2.742-9.112,4.112c-2.101,0.948-4.293,1.968-5.677,3.811
					c-1.037,1.383-1.52,3.106-2.464,4.553c-1.634,2.505-4.453,3.929-7.141,5.241c-4.073,1.987-8.73,4.014-12.978,2.436
					c-4.444-1.651-6.681-6.721-7.118-11.442c-0.19-2.055-0.075-4.303,1.216-5.914c1.72-2.147,4.902-2.413,7.613-1.948
					c2.711,0.465,5.384,1.482,8.125,1.246c2.741-0.236,5.631-2.365,5.379-5.105c-0.288-3.13-4.401-5.425-3.533-8.446
					c0.91-3.165,5.618-2.486,8.528-4.028c4.011-2.126,4.164-8.456,8.172-10.586c3.483-1.85,7.685,0.521,11.626,0.368
					c2.875-0.112,5.827-1.934,6.497-4.732c0.67-2.799-1.812-6.101-4.65-5.625c-2.548,0.428-4.631,3.413-7.076,2.581
					c-1.822-0.62-2.298-2.894-3.044-4.669c-1.173-2.791-3.718-4.966-6.658-5.689c0.539-3.076,4.117-4.39,7.091-5.342
					c2.974-0.952,6.449-2.952,6.147-6.06c-0.328-3.381-5.142-5.578-4.313-8.872c3.321-1.674,7.348-1.175,10.848,0.083
					c11.072,3.979,18.274,14.345,26.561,22.696c9.292,9.364,20.523,16.571,30.282,25.447c2.039,1.855,4.067,3.86,5.11,6.412
					c1.365,3.339,0.856,7.103,1.096,10.703c0.249,3.742,1.331,7.436,1.099,11.179C446.975,180.29,438.216,181.715,430.983,180.893z"
					/>
				<path style="fill:#3884F5;" d="M447.531,195.5c-6.941,2.074-14.349,2.567-21.504,1.43c-1.878-0.298-3.823-0.747-5.271-1.979
					c-1.128-0.96-1.854-2.313-2.922-3.339c-2.356-2.261-6.385-2.494-8.986-0.518c-2.603,1.977-3.87,5.794-7.035,6.61
					c-4.191,1.081-7.304-3.852-11.292-5.533c-2.276-0.959-4.853-0.818-7.265-1.352c-2.412-0.534-4.954-2.197-5.059-4.665
					c-0.072-1.687,1.031-3.363,0.558-4.984c-0.742-2.543-4.294-2.571-6.899-2.094c-12.483,2.285-25.101,3.836-37.766,4.64
					c-1.179,0.075-2.413,0.16-3.422,0.774c-1.935,1.178-2.337,3.825-2.116,6.08s0.852,4.569,0.211,6.742
					c-1.001,3.393-4.62,5.144-7.742,6.806c-5.744,3.057-10.957,7.11-15.337,11.923c-0.76,0.835-1.546,1.863-1.343,2.974
					c0.245,1.344,1.744,1.989,2.709,2.955c2.884,2.889,0.594,7.654-0.065,11.683c-0.642,3.927,0.501,7.908,1.738,11.69
					c1.625,4.968,3.47,9.946,6.527,14.187c3.056,4.24,7.49,7.715,12.642,8.594c4.52,0.771,9.102-0.484,13.649-1.072
					c10.514-1.359,21.125,0.863,31.494,3.074c4.268,0.91,9.419,2.714,10.02,7.036c0.484,3.483-2.412,6.484-3.209,9.91
					c-1.721,7.399,5.833,13.094,8.786,19.046c1.919,3.868,1.613,5.941,0.111,9.646c-2.166,5.34-3.367,11.174-4.898,16.742
					c-0.153,0.555-0.307,1.13-0.215,1.699c0.131,0.816,0.74,1.466,1.359,2.014c2.75,2.435,6.659,4.684,6.515,8.354
					c-0.106,2.701-2.569,5.156-1.85,7.762c0.245,0.887,0.835,1.631,1.389,2.365c4.952,6.565,8.063,14.504,8.889,22.686
					c0.111,1.099,0.188,2.228,0.639,3.236c0.469,1.048,1.316,1.891,2.264,2.539c3.794,2.591,9.066,2.097,13.089-0.121
					s7.032-5.877,9.752-9.579c13.332-18.147,22.059-39.188,30.659-59.999c13.021-31.511,8.235-67.985,4.699-101.896
					c-0.483-4.635-1.183-9.545-4.178-13.115C453.858,194.88,450.693,192.076,447.531,195.5z"/>
				<path style="fill:#3884F5;" d="M345.149,140.625c-0.552-1.592-0.253-3.451,0.771-4.79c1.033-1.351,2.774-2.266,3.155-3.923
					c0.262-1.143-0.231-2.34-0.94-3.275c-0.709-0.935-1.627-1.688-2.4-2.571c-0.475-0.543-0.904-1.155-1.063-1.858
					c-0.307-1.349,0.429-2.713,1.293-3.793c0.464-0.58,1.003-1.145,1.705-1.388c1.622-0.562,3.329,0.856,3.955,2.453
					c1.146,2.923,0.936,5.66,2.686,8.43c1.179,1.866,5.26,5.54,4.421,8.027C357.059,142.892,348.885,140.697,345.149,140.625z"/>
				<path style="fill:#3884F5;" d="M336.556,137.984c-0.399,0.407-0.708,0.903-1.154,1.258c-1.265,1.008-3.325,0.453-4.223-0.892
					c-0.898-1.345-0.78-3.18-0.07-4.634c1.419-2.906,7.841-6.95,10.971-4.541C347.43,133.29,338.305,136.204,336.556,137.984z"/>
				<path style="fill:#3884F5;" d="M235.717,152.839c-0.189-0.966-1.019-1.668-2.182-0.933c-0.859,0.543-1.318,1.552-2.128,2.164
					c-1.787,1.35-4.985,0.63-5.948,2.652c-0.673,1.413,0.582,3.173,2.117,3.478c1.535,0.305,3.095-0.461,4.294-1.467
					c1.337-1.121,2.906-2.93,3.671-4.511C235.755,153.781,235.803,153.282,235.717,152.839z"/>
				<path style="fill:#3884F5;" d="M220.52,156.285c-0.5-0.01-0.784,0.549-1.176,0.86c-0.685,0.545-1.824,0.368-2.354,1.065
					c-0.401,0.526-0.203,1.345,0.302,1.771c0.505,0.426,1.222,0.519,1.877,0.431c0.774-0.104,1.54-0.458,2.004-1.086
					C221.663,158.662,221.738,156.308,220.52,156.285z"/>
			</g>
		</g>
	</g>
	<g>
		<g>
			
				<line style="fill:none;stroke:#C6B8FF;stroke-linecap:round;stroke-linejoin:round;stroke-miterlimit:10;" x1="407.217" y1="60.869" x2="389.434" y2="78.652"/>
			
				<line style="fill:none;stroke:#C6B8FF;stroke-linecap:round;stroke-linejoin:round;stroke-miterlimit:10;" x1="403.573" y1="72.456" x2="396.225" y2="79.804"/>
		</g>
		
			<line style="fill:none;stroke:#C6B8FF;stroke-linecap:round;stroke-linejoin:round;stroke-miterlimit:10;" x1="75.569" y1="376.116" x2="64.755" y2="386.931"/>
		<g>
			<g>
				
					<line style="fill:none;stroke:#C6B8FF;stroke-linecap:round;stroke-linejoin:round;stroke-miterlimit:10;" x1="136.824" y1="66.434" x2="145.92" y2="57.339"/>
				
					<line style="fill:none;stroke:#C6B8FF;stroke-linecap:round;stroke-linejoin:round;stroke-miterlimit:10;" x1="143.855" y1="67.438" x2="159.497" y2="51.797"/>
			</g>
			<path style="fill:none;stroke:#C6B8FF;stroke-linecap:round;stroke-linejoin:round;stroke-miterlimit:10;" d="M158.08,39.955
				c0,1.37-1.11,2.48-2.48,2.48c-1.37,0-2.48-1.11-2.48-2.48c0-1.37,1.11-2.48,2.48-2.48
				C156.969,37.475,158.08,38.585,158.08,39.955z"/>
		</g>
		<path style="fill:none;stroke:#C6B8FF;stroke-linecap:round;stroke-linejoin:round;stroke-miterlimit:10;" d="M62.662,111.156
			c0-2.56,2.075-4.635,4.635-4.635c2.56,0,4.635,2.075,4.635,4.635c0,2.559-2.075,4.634-4.635,4.634"/>
		<g>
			
				<line style="fill:none;stroke:#C6B8FF;stroke-linecap:round;stroke-linejoin:round;stroke-miterlimit:10;" x1="470.343" y1="218.034" x2="456.893" y2="231.483"/>
			<path style="fill:none;stroke:#C6B8FF;stroke-linecap:round;stroke-linejoin:round;stroke-miterlimit:10;" d="M451.759,224.837
				c0,1.375-1.114,2.489-2.489,2.489c-1.375,0-2.489-1.114-2.489-2.489c0-1.375,1.114-2.489,2.489-2.489
				C450.644,222.348,451.759,223.462,451.759,224.837z"/>
		</g>
		<path style="fill:none;stroke:#C6B8FF;stroke-linecap:round;stroke-linejoin:round;stroke-miterlimit:10;" d="M453.006,313.617
			c0-3.413,2.767-6.18,6.18-6.18c3.413,0,6.18,2.767,6.18,6.18"/>
		<path style="fill:none;stroke:#C6B8FF;stroke-linecap:round;stroke-linejoin:round;stroke-miterlimit:10;" d="M71.638,393.872
			c-1.631,0-2.953-1.322-2.953-2.953c0-1.631,1.322-2.953,2.953-2.953"/>
		<g>
			<path style="fill:none;stroke:#C6B8FF;stroke-linecap:round;stroke-linejoin:round;stroke-miterlimit:10;" d="M42.403,164.47
				c0,1.067-0.864,1.931-1.931,1.931c-1.067,0-1.931-0.864-1.931-1.931c0-1.066,0.865-1.931,1.931-1.931
				C41.538,162.539,42.403,163.404,42.403,164.47z"/>
			<path style="fill:none;stroke:#C6B8FF;stroke-linecap:round;stroke-linejoin:round;stroke-miterlimit:10;" d="M51.672,157.518
				c2.56,0,4.635,2.075,4.635,4.635s-2.075,4.634-4.635,4.634"/>
		</g>
		<polyline style="fill:none;stroke:#C6B8FF;stroke-linecap:round;stroke-linejoin:round;stroke-miterlimit:10;" points="
			335.385,445.881 339.52,451.812 343.654,445.881 347.789,451.812 351.924,445.881 356.058,451.812 360.195,445.881 
			364.335,451.812 368.474,445.881 		"/>
		<polyline style="fill:none;stroke:#C6B8FF;stroke-linecap:round;stroke-linejoin:round;stroke-miterlimit:10;" points="250,34.51 
			254.134,40.44 258.269,34.51 262.404,40.44 266.539,34.51 270.673,40.44 274.81,34.51 278.949,40.44 283.089,34.51 		"/>
	</g>
	<g>
		<g>
			<g>
				<path d="M382.084,367.292c-0.721-3.537-4.37-5.808-7.965-5.868c-3.423-0.057-6.895,1.896-7.821,5.101
					c-0.015,0.052-0.021,0.105-0.034,0.156c-0.029,0.056-0.064,0.109-0.091,0.165c-1.534,3.213,0.225,6.852,3.141,8.946
					c2.61,1.874,6.559,2.365,9.199,0.616C381.406,374.49,382.767,370.641,382.084,367.292z"/>
			</g>
			<path style="fill:none;stroke:#000000;stroke-linecap:round;stroke-linejoin:round;stroke-miterlimit:10;" d="M415.091,381.495
				c-1.894,6.757-21.996,6.782-44.899,0.056c-22.903-6.726-39.935-17.655-38.041-24.412c1.894-6.757,21.995-6.782,44.899-0.056
				C399.954,363.809,416.985,374.738,415.091,381.495z"/>
			<path style="fill:none;stroke:#000000;stroke-linecap:round;stroke-linejoin:round;stroke-miterlimit:10;" d="M407.577,342.075
				c4.236,5.532-7.532,22.214-26.285,37.259c-18.753,15.045-37.389,22.757-41.626,17.225s7.532-22.214,26.285-37.259
				C384.704,344.255,403.341,336.543,407.577,342.075z"/>
			<path style="fill:none;stroke:#000000;stroke-linecap:round;stroke-linejoin:round;stroke-miterlimit:10;" d="M385.391,365.209
				c7.69,23.084,8.654,43.636,2.155,45.904c-6.5,2.269-18.003-14.606-25.692-37.689c-7.69-23.084-8.655-43.636-2.155-45.904
				C366.198,325.252,377.701,342.126,385.391,365.209"/>
		</g>
	</g>
	<g>
		<path style="fill:#BB4050;" d="M199.544,84.565c4.92,9.61,16.169,13.684,25.127,9.098c8.957-4.585,12.23-16.093,7.311-25.704
			c-4.92-9.61-16.169-13.684-25.127-9.099C197.897,63.447,194.624,74.955,199.544,84.565z"/>
		<path style="fill:#1C1B26;" d="M176.47,98.455c0.62,1.21,2.068,1.874,4.33,1.992c2.568,0.134,6.186-0.436,10.833-1.71
			c8.16-2.238,18.387-6.406,28.798-11.735c10.412-5.33,19.772-11.19,26.359-16.501c7.054-5.688,9.959-9.882,8.636-12.466
			c-0.128-0.249-0.301-0.468-0.499-0.671c-0.006-0.006-0.012-0.013-0.018-0.019c-0.682-0.687-1.774-1.103-3.264-1.252
			c-1.782-0.951-4.098-0.476-5.987-0.07c-9.104,1.959-17.953,5.238-26.374,9.181c-4.2,1.967-8.308,4.128-12.307,6.476
			c-1.021,0.599-2.03,1.218-3.031,1.851c-7.36,4.157-13.885,8.463-18.84,12.459C178.052,91.677,175.147,95.871,176.47,98.455z
			 M182.473,92.031c1.693-1.707,3.503-3.293,5.382-4.791c2.727-2.174,5.671-4.048,8.516-6.054c0.038-0.011,0.074-0.011,0.114-0.028
			c2.186-0.914,4.171-2.37,6.161-3.643c2.021-1.293,4.076-2.533,6.147-3.745c7.256-4.246,14.866-7.841,22.71-10.861
			c3.868-1.49,7.803-2.839,11.767-4.051c0.825-0.252,1.679-0.562,2.545-0.843c2.205-0.393,3.932-0.523,5.221-0.456
			c0.14,0.007,0.258,0.024,0.388,0.036c0.328,0.151,0.63,0.36,0.89,0.647c0.306,0.339,0.529,0.731,0.637,1.144
			c-1.051,1.852-2.74,3.429-4.206,4.89c-2.076,2.069-4.359,3.936-6.722,5.667c-4.342,3.181-9.037,5.86-13.689,8.553
			c-5.002,2.895-10.046,5.724-15.222,8.3c-5.145,2.561-10.435,4.888-15.869,6.768c-2.602,0.9-5.239,1.73-7.93,2.322
			c-2.098,0.461-5.682,1.753-7.804,1.432c-0.914-0.138-1.405-0.442-1.608-0.84C179.243,95.192,181.594,92.917,182.473,92.031z"/>
		<path style="fill:#BB4050;" d="M210.706,75.966c6.622-3.681,13.607-6.488,20.728-8.96c-5.161-8.91-15.93-12.572-24.58-8.145
			c-8.689,4.448-12.005,15.406-7.707,24.831C202.792,80.817,206.646,78.223,210.706,75.966z"/>
	</g>
	<g>
		<path style="fill:#FABC5F;" d="M71.876,351.835l18.87-65.894c0.112-0.392-0.161-0.789-0.603-0.875l-47.726-9.262
			c-0.6-0.116-1.115,0.394-0.926,0.918l26.768,73.987C68.454,351.304,71.679,352.478,71.876,351.835z M77.885,292.625l-8.871,30.992
			c0,0-1.156-1.217-1.33-1.832l-9.033-31.869c-0.134-0.474,0.351-0.975,0.865-0.893l17.906,2.849
			C77.787,291.931,77.994,292.267,77.885,292.625z"/>
		<g>
			
				<line style="fill:none;stroke:#1C1B26;stroke-linecap:round;stroke-linejoin:round;stroke-miterlimit:10;" x1="52.398" y1="278.253" x2="51.15" y2="283.06"/>
			
				<line style="fill:none;stroke:#1C1B26;stroke-linecap:round;stroke-linejoin:round;stroke-miterlimit:10;" x1="61.787" y1="280.047" x2="60.539" y2="284.854"/>
			
				<line style="fill:none;stroke:#1C1B26;stroke-linecap:round;stroke-linejoin:round;stroke-miterlimit:10;" x1="71.175" y1="281.84" x2="69.927" y2="286.647"/>
			
				<line style="fill:none;stroke:#1C1B26;stroke-linecap:round;stroke-linejoin:round;stroke-miterlimit:10;" x1="80.564" y1="283.633" x2="79.316" y2="288.44"/>
		</g>
		
			<line style="fill:none;stroke:#1C1B26;stroke-linecap:round;stroke-linejoin:round;stroke-miterlimit:10;" x1="81.315" y1="292.159" x2="87.017" y2="293.522"/>
		
			<line style="fill:none;stroke:#1C1B26;stroke-linecap:round;stroke-linejoin:round;stroke-miterlimit:10;" x1="79.72" y1="298.341" x2="85.422" y2="299.704"/>
		
			<line style="fill:none;stroke:#1C1B26;stroke-linecap:round;stroke-linejoin:round;stroke-miterlimit:10;" x1="78.125" y1="304.522" x2="83.827" y2="305.885"/>
		
			<line style="fill:none;stroke:#1C1B26;stroke-linecap:round;stroke-linejoin:round;stroke-miterlimit:10;" x1="76.529" y1="310.703" x2="82.231" y2="312.066"/>
		
			<line style="fill:none;stroke:#1C1B26;stroke-linecap:round;stroke-linejoin:round;stroke-miterlimit:10;" x1="74.934" y1="316.885" x2="80.636" y2="318.248"/>
		
			<line style="fill:none;stroke:#1C1B26;stroke-linecap:round;stroke-linejoin:round;stroke-miterlimit:10;" x1="73.338" y1="323.066" x2="79.04" y2="324.429"/>
		
			<line style="fill:none;stroke:#1C1B26;stroke-linecap:round;stroke-linejoin:round;stroke-miterlimit:10;" x1="71.743" y1="329.247" x2="77.445" y2="330.61"/>
		
			<line style="fill:none;stroke:#1C1B26;stroke-linecap:round;stroke-linejoin:round;stroke-miterlimit:10;" x1="70.147" y1="335.429" x2="75.849" y2="336.792"/>
	</g>
	<g>
		<g>
			<path d="M134.683,147.232c1.161,2.528-0.234,5.651-3.115,6.974c-2.882,1.323-6.159,0.346-7.32-2.182
				c-1.161-2.528,0.234-5.651,3.115-6.974C130.244,143.727,133.522,144.704,134.683,147.232z"/>
			<path style="fill:#FABC5F;" d="M132.955,114.534c0.031-0.213,0.062-0.426,0.091-0.638c0.928-6.663-0.7-12.028-4.252-17.664
				c-2.651-4.206-7.309-7.332-12.166-8.43c-5.096-1.152-10.265,0.344-14.672,2.953c-8.776,5.197-12.785,15.065-10.485,24.817
				c1.426,6.048,4.582,9.066,9.583,12.511c6.867,4.73,11.569,9.967,15.082,17.557c0.242,0.523,0.505,1.074,0.982,1.398
				c0.573,0.39,1.323,0.366,2.014,0.313c1.483-0.114,2.96-0.296,4.426-0.547c2.823-0.482,5.671-1.246,8.014-2.894
				c6.945-4.886,2.441-10.874,0.927-17.177C131.543,122.751,132.361,118.602,132.955,114.534z"/>
			<path style="fill:none;stroke:#000000;stroke-linecap:round;stroke-linejoin:round;stroke-miterlimit:10;" d="M122.173,142.588
				c-4.571-8.274-9.662-16.259-15.231-23.887c1.09,1.63,3.379,2.406,5.076,1.527c1.696-0.879,2.334-3.45,1.091-4.964
				c-0.271-0.33-0.778-0.604-1.078-0.313c-0.146,0.141-0.176,0.365-0.177,0.571c-0.017,2.076,2.461,3.76,4.317,2.935
				c1.856-0.825,2.262-3.791,0.708-5.169c-0.194-0.172-0.44-0.326-0.688-0.278c-0.425,0.083-0.526,0.661-0.435,1.094
				c0.748,3.564,4.707,2.576,6.147,0.201c0.285-0.47,0.503-1.014,0.435-1.56c-0.068-0.546-0.499-1.073-1.049-1.097
				c-2.624-0.113,0.505,6.39,0.905,7.345c2.665,6.368,4.928,12.904,6.772,19.556"/>
			<path style="fill:#BB4050;" d="M135.254,146.958c-2.749,3.725-8.187,5.311-12.655,4.819c-0.575-0.063-1.155-0.16-1.705-0.383
				c-1.756-0.71-2.901-2.536-3.911-4.24c-0.682-1.151-0.652-1.532-1.334-2.683c0.194,0.325,2.271-0.951,2.697-1.094
				c0.893-0.301,1.754-0.806,2.61-1.199c2.098-0.964,4.196-1.927,6.295-2.89c2.646-1.215,5.293-2.43,7.939-3.645
				c0.383-0.176,1.603,5.321,1.626,5.878c0.084,1.952-0.434,3.89-1.525,5.389C135.278,146.925,135.266,146.942,135.254,146.958z"/>
			<path d="M134.58,134.488c-1.852,0.694-3.637,1.718-5.415,2.584c-1.671,0.813-3.351,1.605-5.022,2.417
				c-1.671,0.811-3.359,1.59-5.026,2.41c-0.897,0.441-1.804,0.868-2.694,1.324c-0.651,0.334-1.397,0.597-1.592,1.355
				c-0.042,0.165-0.02,0.398,0.153,0.491c0.637,0.343,1.121,0.157,1.785-0.066c0.944-0.317,1.867-0.741,2.79-1.114
				c1.854-0.75,3.678-1.578,5.503-2.398c1.825-0.819,3.631-1.682,5.43-2.556c1.74-0.845,3.573-1.645,5.201-2.692
				C136.741,135.568,135.615,134.101,134.58,134.488z"/>
		</g>
		<path style="fill:none;stroke:#FFFFFF;stroke-linecap:round;stroke-linejoin:round;stroke-miterlimit:10;" d="M105.307,94.431
			c-6.031,3.299-9.441,10.788-7.97,17.503"/>
		<path style="fill:none;stroke:#FFFFFF;stroke-linecap:round;stroke-linejoin:round;stroke-miterlimit:10;" d="M97.45,116.874
			c-0.086,2.14,0.926,4.294,2.627,5.595"/>
	</g>
	<g>
		<g>
			<path style="fill:#FABC5F;" d="M309.124,89.475c-1.992,0.395-3.815,2.654-3.187,4.762c0.658,2.206,0.856,4.287,0.616,6.522
				c-1.823,1.53-3.329,3.414-4.403,5.545c-0.788-0.256-1.582-0.493-2.394-0.688c-2.054-0.494-4.489,0.262-5.154,2.503
				c-0.575,1.937,0.296,4.623,2.503,5.154c1.083,0.261,2.143,0.578,3.184,0.948c0.002,0.476,0.018,0.954,0.06,1.437
				c0.19,2.209,0.786,4.284,1.703,6.164c-0.196,0.11-0.393,0.22-0.594,0.321c-0.517,0.259-1.048,0.477-1.59,0.68
				c-2.051,0.767-2.767,3.576-1.874,5.414c1.031,2.123,3.358,2.644,5.414,1.874c1.37-0.513,2.626-1.203,3.791-2.021
				c1.743,1.324,3.738,2.322,5.887,2.92c-0.068,0.103-0.135,0.207-0.21,0.307c-0.056,0.077-0.115,0.151-0.177,0.223
				c-0.132,0.105-0.285,0.206-0.334,0.245c-0.103,0.083-0.161,0.139-0.2,0.182c-0.199,0.096-0.462,0.178-0.549,0.217
				c-1.942,0.861-2.889,3.534-1.874,5.414c1.073,1.987,3.342,2.793,5.414,1.874c3.433-1.522,5.635-4.643,6.356-8.231
				c1.357-0.299,2.65-0.754,3.863-1.34c0.987,1.49,1.761,3.09,2.401,4.845c0.75,2.057,3.587,2.761,5.414,1.874
				c2.136-1.037,2.627-3.352,1.874-5.414c-0.838-2.297-2.006-4.441-3.406-6.436c1.592-2.084,2.73-4.521,3.259-7.162
				c0.994,0.346,1.989,0.691,2.983,1.037c2.002,0.696,4.531-0.405,5.154-2.503c0.626-2.109-0.358-4.408-2.503-5.154
				c-1.923-0.669-3.846-1.337-5.769-2.006c-0.114-0.04-0.23-0.072-0.347-0.1c-0.741-2.343-1.948-4.464-3.517-6.251
				c0.516-1.065,1.031-2.131,1.547-3.196c0.955-1.973-0.608-4.498-2.503-5.154c-2.271-0.786-4.196,0.525-5.154,2.503
				c-0.184,0.38-0.368,0.759-0.551,1.139c-2.454-0.982-5.166-1.425-7.979-1.184c-0.537,0.046-1.063,0.124-1.583,0.217
				c-0.126-1.455-0.391-2.897-0.808-4.294C313.262,90.568,311.414,89.02,309.124,89.475z"/>
			<path style="fill:#BB4050;" d="M316.397,124.113c1.462-1.085,1.895-3.312,1-4.897c-0.895-1.586-2.97-2.369-4.709-1.83
				c-0.556,0.172-1.081,0.467-1.481,0.89C308.286,121.361,312.89,126.717,316.397,124.113z"/>
			<path style="fill:none;stroke:#000000;stroke-linecap:round;stroke-linejoin:round;stroke-miterlimit:10;" d="M314.756,97.054
				c0.251,1.612,0.527,3.22,0.827,4.824"/>
			<path style="fill:none;stroke:#000000;stroke-linecap:round;stroke-linejoin:round;stroke-miterlimit:10;" d="M335.001,109.793
				c-1.692-0.862-3.559-1.381-5.453-1.514"/>
			<path style="fill:none;stroke:#000000;stroke-linecap:round;stroke-linejoin:round;stroke-miterlimit:10;" d="M332.189,125.687
				c-1.565-2.304-3.317-4.482-5.232-6.505"/>
			<path style="fill:none;stroke:#000000;stroke-linecap:round;stroke-linejoin:round;stroke-miterlimit:10;" d="M301.894,113.132
				c1.926-0.066,3.848-0.278,5.742-0.633"/>
		</g>
		<g>
			<path style="fill:#6771BA;" d="M339.402,64.945c-1.814,0.442-2.639,1.948-2.487,3.717l0.35,4.08
				c0.013,0.154,0.048,0.302,0.092,0.447c-0.244,0.162-0.475,0.34-0.701,0.525c-0.445-0.289-0.89-0.577-1.335-0.866
				c-1.386-0.899-3.479-0.661-4.398,0.814c-0.886,1.423-0.67,3.435,0.814,4.398c0.605,0.393,1.21,0.785,1.816,1.178
				c-0.024,0.166-0.057,0.33-0.071,0.498c-0.415,0.069-0.838,0.086-1.293,0.058c-1.704-0.105-3.248,1.245-3.36,2.953
				c-0.111,1.706,1.243,3.255,2.953,3.36c1.153,0.071,2.318-0.021,3.443-0.277c-0.302,0.326-0.603,0.653-0.905,0.979
				c-1.12,1.212-1.601,3.114-0.343,4.46c1.057,1.132,3.261,1.64,4.46,0.343c0.781-0.845,1.562-1.69,2.343-2.535
				c0.07,0.011,0.138,0.03,0.209,0.039c0.169,1.178,0.339,2.356,0.508,3.534c0.243,1.69,2.105,2.807,3.717,2.487
				c1.75-0.347,2.731-2.021,2.487-3.717l-0.408-2.839c0.743,0.715,1.486,1.431,2.23,2.147c1.189,1.145,3.131,1.585,4.46,0.343
				c1.153-1.077,1.616-3.235,0.343-4.459c-1.262-1.215-2.524-2.43-3.786-3.645c0.003-0.011,0.008-0.022,0.011-0.033
				c1.501-0.171,2.949-0.548,4.385-1.15c1.53-0.641,2.244-2.779,1.463-4.226c-0.851-1.577-2.594-2.147-4.226-1.463
				c-0.603,0.253-1.296,0.426-1.981,0.527c0.781-1.078,1.562-2.157,2.343-3.235c0.97-1.34,0.61-3.511-0.814-4.399
				c-1.485-0.925-3.359-0.62-4.398,0.815c-0.623,0.86-1.246,1.72-1.869,2.58c-0.394-0.16-0.797-0.303-1.215-0.406
				c0.01-0.178,0.02-0.356,0.03-0.534c0.045-0.799-0.234-1.652-0.755-2.261c-0.08-0.093-0.171-0.182-0.268-0.269l-0.127-1.482
				C342.977,65.778,340.935,64.571,339.402,64.945z"/>
			<path style="fill:none;stroke:#000000;stroke-linecap:round;stroke-linejoin:round;stroke-miterlimit:10;" d="M335.764,82.302
				c-0.513,0.663-0.377,1.463,1.335,2.446c0.888,0.51,2.2,0.301,2.692-0.596c-0.25,1.237,1.023,2.237,2.206,2.678
				c0.659,0.246,1.357,0.427,2.06,0.386c1.415-0.082,2.715-1.163,3.055-2.54c0.339-1.376-0.309-2.938-1.524-3.669
				c1.126-0.174,1.843-1.365,1.952-2.499c0.111-1.15-0.276-2.371-1.139-3.14c-0.863-0.768-2.214-0.997-3.219-0.427
				c-1.005,0.57-1.495,1.964-0.95,2.983c0.106-0.076,0.075-0.239,0.028-0.361c-0.462-1.183-1.466-2.191-2.707-2.459
				c-1.241-0.268-2.672,0.325-3.197,1.482c-0.851,1.876,1.352,3.027,2.575,3.781C338.069,80.856,336.407,81.471,335.764,82.302z"/>
		</g>
	</g>
	<g>
		<path style="fill:#6771BA;" d="M101.076,178.316c-0.237-1.275-1.445-1.762-2.544-1.14c-0.461,0.261-0.921,0.528-1.38,0.798
			c-0.349,0.067-0.693,0.198-1.007,0.457c-0.221,0.182-0.441,0.367-0.662,0.549c-7.076,4.389-13.608,9.976-17.335,17.541
			c-3.445,6.992-4.462,17.28,1.024,23.571c-0.49,3.233-0.74,6.493-0.758,9.766c-0.006,1.107-0.003,2.209,0.026,3.305
			c-0.377-0.47-0.749-0.944-1.137-1.405c-2.538-3.013-5.312-5.826-8.29-8.405c-0.329-0.285-0.669-0.577-0.866-0.965
			c-0.181-0.357-0.227-0.764-0.292-1.159c-0.466-2.812-2.451-5.075-4.069-7.345c-0.75-1.053-1.548-2.073-2.394-3.052
			c-1.523-1.761-3.201-3.386-5.037-4.821c-2.92-2.283-6.193-3.881-9.85-4.556c-3.899-0.72-7.941-0.443-11.847,0.072
			c-1.956,0.258-3.341,2.682-1.957,4.366c4.434,5.395,8.791,11.309,14.865,14.956c4.749,2.851,10.383,4.167,15.904,3.857
			c0.992-0.055,1.716-0.066,2.332,0c1.297,1.119,2.583,2.249,3.828,3.426c1.856,1.754,3.636,3.585,5.317,5.509
			c0.665,0.868,1.348,1.723,2.07,2.551c0.521,0.685,1.048,1.364,1.588,2.029c1.339-0.249,2.674-0.52,4.016-0.74
			c0.222-2.254,0.228-4.526,0.335-6.821c0.162-3.495,0.371-7.009,0.862-10.476c6.586-4.066,12.634-9.679,16.055-16.716
			C103.626,195.746,102.595,186.489,101.076,178.316z"/>
		<path style="fill:none;stroke:#000000;stroke-linecap:round;stroke-linejoin:round;stroke-miterlimit:10;" d="M81.485,219.371
			c3.686-13.913,9.419-27.283,16.956-39.545"/>
		<path style="fill:none;stroke:#000000;stroke-linecap:round;stroke-linejoin:round;stroke-miterlimit:10;" d="M66.112,223.234
			c-7.78-6.167-16.118-11.629-24.88-16.298"/>
	</g>
	<g>
		<defs>
			<rect id="XMLID_1_" width="500" height="500"/>
		</defs>
		<clipPath id="XMLID_00000073713173669576539750000005385522533535510181_">
			<use xlink:href="#XMLID_1_"  style="overflow:visible;"/>
		</clipPath>
		<g style="clip-path:url(#XMLID_00000073713173669576539750000005385522533535510181_);">
			<g>
				<path style="fill:#6771BA;" d="M230.841,402.534c-2.71-0.1-5.412-0.292-8.103-0.604c-14.768-1.717-29.59-1.368-44.515-1.368
					c-2.819,2.545-4.888,5.875-6.833,9.17c-15.044,25.485-28.245,51.206-35.08,79.904c-3.077,12.31-6.536,25.276-8.445,37.77
					c-1.831,11.98,0.656,25.009,1.695,37.215c0.224,2.635,0.475,5.36,1.758,7.672c1.52,2.74,4.295,4.541,7.104,5.927
					c12.012,5.926,25.964,6.104,39.353,5.738c42.087-1.151,83.935-6.47,125.701-11.784c1.557-0.198,3.278-0.485,4.247-1.72
					c0.8-1.019,0.863-2.415,0.892-3.711c0.317-14.218,0.633-28.437,0.95-42.655c0.589-26.458,1.098-53.501-7.037-78.684
					c-4.723-14.621-12.335-28.534-13.86-43.823C269.34,399.444,249.87,403.238,230.841,402.534z"/>
				<path style="fill:none;stroke:#000000;stroke-linecap:round;stroke-linejoin:round;stroke-miterlimit:10;" d="M267.857,431.9
					c1.478,5.565,5.302,10.466,10.341,13.253c5.038,2.787,11.222,3.423,16.722,1.718"/>
				<path style="fill:none;stroke:#000000;stroke-linecap:round;stroke-linejoin:round;stroke-miterlimit:10;" d="M183.151,429.39
					c-3.27,11.313-14.122,20.002-25.877,20.719"/>
				<path d="M239.738,430.412c3.548,1.616,6.172,4.763,9.915,5.96c3.717,1.188,6.6-0.427,9.165-2.798
					c2.822-2.609,6.073-4.396,10.019-4.422c4.396-0.03,8.73,2.03,13.063,1.293c4.599-0.783,8.055-4.491,11.144-7.987
					c0.371-0.42,0.759-0.875,0.831-1.431c0.056-0.431-0.088-0.859-0.23-1.27c-0.819-2.374-1.639-4.748-2.459-7.122
					c-0.514-1.488-1.048-3.013-2.063-4.216c-1.501-1.779-3.287-1.977-5.305-1.183c-5.714,2.247-11.611,2.837-17.469,4.414
					c-5.673,1.527-11.202,3.699-17.017,4.659c-3.525,0.582-7.033-0.121-10.558,0.12c-3.107,0.212-6.06,1.098-9.253,1.215
					c-13.028,0.477-26.185,0.945-38.997-1.463c-4.303-0.809-8.556-1.428-12.89-1.987c-1.561-0.201-2.62-0.372-4.216-0.054
					c-0.74,0.147-5.574,2.275-5.895,2.027c5.304,4.1,11.806,6.63,18.486,7.193c2.403,0.202,5,0.463,7.232,1.429
					c3.837,1.66,8.101,3.854,12.367,4.135c0.981,0.064,1.953-0.178,2.91-0.407c10.339-2.476,20.328-2.089,30.336,1.537
					C239.156,430.159,239.45,430.28,239.738,430.412z"/>
			</g>
			<path d="M99.16,327.394c0.032,1.433,0.622,4.075,1.624,5.164c1.783,1.939,4.689,2.902,7.257,3.081
				c3.739,0.26,7.53-1.199,11.192-0.4c6.264,1.369,9.471,8.554,15.224,11.385c5.054,2.487,10.35,0.017,15.49-0.71
				c2.631-0.372,4.914-0.178,7.355,0.85c2.124,0.895,5.31,2.665,7.655,1.802c1.305-0.481,2.18-1.926,2.001-3.306
				c-0.398-3.062-2.627-5.19-5.049-6.963c-4.585-3.357-10.602-3.87-15.87-5.999c-5.061-2.045-9.39-5.571-14.331-7.891
				c-5.718-2.684-12.218-3.596-18.469-2.767c-3.559,0.472-9.129,0.807-12.136,2.946C99.717,325.572,99.126,325.876,99.16,327.394z"
				/>
			<path style="fill:#F2A191;" d="M121.057,304.03c7.162-11.161,27.07-18.075,36.678-5.52c5.238,6.845,5.777,16.102,5.65,24.721
				c-0.3,20.219-3.106,40.4-8.335,59.934c-2.561,9.566-7.203,20.426-16.868,22.588c-13.699,3.064-27.471-10.516-31.644-22.205
				c-4.728-13.244-2.376-27.883-0.098-41.418C108.712,328.627,113.659,315.562,121.057,304.03z"/>
			<path d="M340.955,268.794c-0.09,4.202-1.487,8.248-2.371,12.356c-1.012,4.7-1.356,9.479-1.591,14.264
				c-0.227,4.604-1.658,9.097-1.388,13.812c0.168,2.927,0.738,6.063-0.658,8.642c-3.98,7.347-11.052-1.82-13.726-5.62
				c-4.792-6.811-9.728-13.981-10.803-22.239c-1.383-10.626,3.848-20.873,8.919-30.313c2.636-4.907,7.871-8.62,13.78-6.539
				C338.645,255.102,341.067,263.58,340.955,268.794z"/>
			<path style="fill:#F2A191;" d="M379.871,167.537c-2.942,15.951-7.118,31.628-11.425,47.254
				c-3.292,11.941-5.631,24.438-8.686,36.54c-0.154,0.61-0.323,1.249-0.757,1.705c-0.625,0.657-1.618,0.762-2.522,0.829
				c-8.043,0.596-16.075,1.352-24.088,2.269c-7.647,0.875-15.333,1.908-22.632,4.349c-10.951,3.662-22.545,11.223-21.77,24.297
				c0.447,7.529,6.339,13.688,12.83,17.528c13.849,8.194,28.144,7.56,43.538,6.25c16.061-1.367,32.68-3.452,46.372-11.957
				c3.983-2.474,7.695-5.509,10.362-9.366c5.636-8.151,6.381-19.014,7.739-28.552c2.871-20.165,3.166-40.623,2.361-60.976
				c-0.388-9.811-1.029-19.665,0.029-29.426c1.949-17.982,8.335-34.114,9.582-52.278c0.058-0.84,0.099-1.716-0.235-2.489
				c-0.19-0.442-0.542-0.836-0.961-1.06c-0.315-0.168-0.668-0.24-1.02-0.164c-2.072,0.446-2.733,9.98-3.318,11.906
				c-0.266,0.874-0.701,3.322-1.76,3.672c-1.807,0.598-2.064-1.452-1.8-2.687c1.129-5.289,2.258-10.578,3.387-15.867
				c0.251-1.176,0.662-2.87-0.18-3.871c-0.577-0.686-1.588-0.97-2.438-0.684c-1.488,0.501-2.013,2.297-2.323,3.836
				c-1.005,4.993-2.011,9.986-3.016,14.979c-0.305,1.512-1.118,4.369-3.399,3.369c-1.139-0.499-1.163-2.082-1.003-3.315
				c0.63-4.863,1.071-9.709,1.568-14.551c0.18-1.754,1.389-6.106,0.381-7.585c-0.325-0.477-0.865-0.76-1.404-0.963
				c-0.37-0.139-0.764-0.251-1.156-0.2c-0.863,0.113-1.432,0.966-1.705,1.793c-0.87,2.632-1.069,5.243-1.233,8.003
				c-0.268,4.521-0.991,9.015-2.154,13.392c-0.508,1.91-2.727,6.576-4.25,3.213c-0.791-1.747-0.22-4.245-0.302-6.11
				c-0.182-4.051-0.367-8.102-0.551-12.153c-0.126-2.761-4.339-2.795-4.318,0c0.036,4.891-0.063,9.784-0.302,14.67
				c-0.177,3.624,0.747,9.885-1.333,13.019c-1.073,1.617-3.649,2.364-4.968,0.94c-0.571-0.617-0.779-1.477-0.967-2.296
				c-0.682-2.978-0.935-8.299-2.946-10.729c-0.45-0.545-1.105-0.973-1.811-0.955c-0.932,0.025-1.696,0.831-1.977,1.72
				c-0.569,1.797,0.378,4.045,0.616,5.86C375.576,143.265,382.218,154.813,379.871,167.537z"/>
			<path style="fill:#BB4050;" d="M285.03,265.889c-8.29-13.955-16.999-22.324-32.989-24.929h-34.553
				c-6.644,1.014-13.24,2.058-20.054,2.335c-3.173,0.129-6.729,0.334-8.864,2.686c-1.005,1.107-1.541,2.549-2.054,3.953
				c-4.385,11.995-8.775,24.007-12.176,36.317c-6.895,24.959-9.537,50.737-12.256,76.406c-1.82,17.172-9.91,36.88,8.126,49.291
				c6.73,4.631,15.248,5.609,23.39,6.276c20.863,1.71,41.82,2.282,62.745,1.712c13.728-0.374,29.172-2.09,37.698-12.855
				c5.746-7.255,6.937-17.038,7.419-26.28c1.709-32.73-0.842-72.365-11.299-103.625C288.79,273.068,287.062,269.309,285.03,265.889z
				"/>
			<path style="fill:#BB4050;" d="M156.195,251.965c-13.176,6.132-24.118,16.717-32.544,28.658
				c-5.495,7.788-9.924,16.181-14.1,24.723c-3.375,6.904-6.75,13.807-10.125,20.711c3.226-1.481,8.319-0.015,11.687,0.558
				c4.074,0.692,8.099,1.651,12.073,2.781c8.049,2.288,15.878,5.271,23.677,8.286c9.267,3.583,18.531,7.263,28.13,9.875
				c6.063,1.65,9.16,4.176,12.971-0.288c2.352-2.755,3.83-9.986,5.62-13.447c5.675-10.971,11.602-21.831,16.46-33.201
				c4.499-10.512,8.419-20.348,16.591-28.708c6.083-6.223,13.068-11.483,19.52-17.322c1.909-1.728,3.94-3.991,3.438-6.516
				c-0.595-2.993-5.781-8.218-8.827-8.41C214.673,238.015,182.081,239.918,156.195,251.965z"/>
			<g>
				<defs>
					<path id="SVGID_00000102533074731211739140000000264277101526101402_" d="M156.195,251.965
						c-13.176,6.132-24.118,16.717-32.544,28.658c-5.495,7.788-9.924,16.181-14.1,24.723c-3.375,6.904-6.75,13.807-10.125,20.711
						c3.226-1.481,8.319-0.015,11.687,0.558c4.074,0.692,8.099,1.651,12.073,2.781c8.049,2.288,15.878,5.271,23.677,8.286
						c9.267,3.583,18.531,7.263,28.13,9.875c6.063,1.65,9.16,4.176,12.971-0.288c2.352-2.755,3.83-9.986,5.62-13.447
						c5.675-10.971,11.602-21.831,16.46-33.201c4.499-10.512,8.419-20.348,16.591-28.708c6.083-6.223,13.068-11.483,19.52-17.322
						c1.909-1.728,3.94-3.991,3.438-6.516c-0.595-2.993-4.216-4.123-7.23-4.603C214.447,239.023,182.081,239.918,156.195,251.965z"
						/>
				</defs>
				<clipPath id="SVGID_00000044177303798979907040000015112069190362111665_">
					<use xlink:href="#SVGID_00000102533074731211739140000000264277101526101402_"  style="overflow:visible;"/>
				</clipPath>
				
					<path style="clip-path:url(#SVGID_00000044177303798979907040000015112069190362111665_);fill:none;stroke:#FABC5F;stroke-linecap:round;stroke-linejoin:round;stroke-miterlimit:10;" d="
					M103.797,312.859c17.476,2.884,45.964,10.043,64.393,19.672"/>
				
					<path style="clip-path:url(#SVGID_00000044177303798979907040000015112069190362111665_);fill:none;stroke:#FABC5F;stroke-linecap:round;stroke-linejoin:round;stroke-miterlimit:10;" d="
					M100.623,319.686c10.606,0.69,43.032,8.867,64.304,20.36"/>
			</g>
			<g>
				<defs>
					<path id="SVGID_00000048474366909513550230000017346109943934749325_" d="M285.03,265.889
						c-8.653-14.568-17.742-23.066-35.116-25.255c-8.002-1.008-16.529-1.844-24.495-0.817c-9.386,1.211-18.473,3.09-27.985,3.478
						c-3.173,0.129-6.729,0.334-8.864,2.686c-1.005,1.107-1.541,2.549-2.054,3.953c-4.385,11.995-8.776,24.007-12.176,36.317
						c-2.975,10.771-3.416,22.516-5.171,33.547c-2.401,15.092-5.316,18.098-7.279,44.756c-0.523,7.108-1.448,14.181-2.172,21.271
						c-0.181,1.769-0.357,3.593,0.157,5.295c0.411,1.364,1.241,2.561,2.128,3.676c14.432,18.156,43.081,18.167,64.177,18.774
						c14.628,0.421,29.63,0.109,43.316-5.072c13.457-5.094,26.847-15.664,27.153-30.96c0.66-32.938,4.048-68.876-6.485-100.363
						C288.79,273.068,287.062,269.309,285.03,265.889z"/>
				</defs>
				<clipPath id="SVGID_00000156546407880389871580000010256228302409753233_">
					<use xlink:href="#SVGID_00000048474366909513550230000017346109943934749325_"  style="overflow:visible;"/>
				</clipPath>
				<path style="clip-path:url(#SVGID_00000156546407880389871580000010256228302409753233_);fill:#9B2F43;" d="M172.975,333.728
					c-0.235,1.591-0.812,3.174-1.358,4.699c-0.893,2.494-1.723,5.233-0.875,7.743c0.442,1.31,1.305,2.427,2.12,3.544
					c1.416,1.941,2.755,4.018,3.265,6.366c1.027,4.728-1.995,8.037-5.803,10.229c-0.792,0.456-1.628,0.871-2.275,1.516
					c-0.787,0.785-1.228,1.843-1.663,2.866c-1.339,3.146-2.806,6.237-4.397,9.264c-0.174,0.331-0.358,0.672-0.653,0.903
					c-0.298,0.233-0.683,0.33-1.061,0.342c-6.566,0.2-0.727-19.254-0.301-22.661c0.771-5.57,1.739-11.112,2.9-16.618
					c0.743-3.532,0.776-7.181,1.889-10.65c1.422-4.434,6.746-6.911,8.151-0.569C173.135,331.705,173.124,332.718,172.975,333.728z"
					/>
			</g>
			<path style="fill:#BB4050;" d="M333.192,253.25c-4.718-2.821-13.221-3.036-18.4-3.795c-6.768-0.991-13.57-1.733-20.324-2.819
				c-14.172-2.279-28.378-4.367-42.636-6.031c-15.685-1.449-31.65-2.757-47.214,0.076c-4.671,1.958-0.101,7.614,2.335,10.184
				c6.48,6.835,15.145,11.208,21.678,17.892c6.836,6.994,12.197,16.459,14.999,25.815c1.366,4.56,1.545,8.833,5.771,11.46
				c5.187,3.223,12.263,4.955,18.074,6.695c12.035,3.605,24.518,5.715,37.07,6.239c8.963,0.375,18.064-0.036,26.772,2.118
				c-0.046-0.011-0.708-13.816-0.914-15.306c-0.707-5.117-2.596-9.354-2.659-14.575c-0.082-6.859,0.083-13.731,0.345-20.585
				c0.133-3.467,0.225-7.228,1.465-10.515c1.024-2.713,3.207-3.796,4.35-6.256C333.773,253.529,333.535,253.331,333.192,253.25z"/>
			<path style="fill:none;stroke:#000000;stroke-linecap:round;stroke-linejoin:round;stroke-miterlimit:10;" d="M164.046,344.543
				c2.864-15.47,5.531-30.5,13.14-44.27"/>
			<path style="fill:none;stroke:#000000;stroke-linecap:round;stroke-linejoin:round;stroke-miterlimit:10;" d="M173.29,308.56
				c2.283-1.522,4.421-3.26,6.377-5.185"/>
			<g>
				<path d="M194.951,153.357c-4.316,2.373-8.4,5.165-11.067,9.431c-3.812,6.098-3.945,13.802-6.865,20.374
					c-1.354,3.049-3.323,5.896-3.876,9.186c-0.517,3.071,0.257,6.191,0.557,9.291c0.341,3.521-0.47,7.17-2.065,10.322
					c-1.379,2.727-4.59,5.612-2.841,8.963c0.954,1.829,3.219,2.577,5.282,2.61c2.063,0.033,4.113-0.47,6.174-0.369
					c2.887,0.142,5.566,1.447,8.303,2.377c4.167,1.416,8.979,0.753,13.357,0.965c5.981,0.291,11.971,0.391,17.958,0.301
					c6.614-0.098,13.116-0.045,19.778-0.408c1.642-0.089,3.283-0.179,4.925-0.268c2.43-0.132,4.868-0.265,7.295-0.091
					c8.274,0.591,17.513-0.69,25.388-3.402c1.288-0.444,2.618-0.981,3.485-2.031c0.868-1.051,1.08-2.764,0.108-3.719
					c-0.421-0.414-0.993-0.629-1.488-0.95c-1.711-1.107-2.326-3.305-2.54-5.332c-0.413-3.916,0.572-7.707,0.555-11.597
					c-0.033-7.432-2.112-15.36-4.038-22.536c-2.268-8.448-6.282-16.432-11.767-23.25c-3.232-4.018-7.009-7.674-11.501-10.207
					c-4.448-2.508-9.491-3.851-14.572-4.357c-10.07-1.003-21.274,1.23-29.808,6.839c-3.641,2.393-6.12,5.371-10.035,7.475
					C195.418,153.102,195.184,153.229,194.951,153.357z"/>
				<path style="fill:#E79E8B;" d="M241.326,246.735c-1.652,1.02-3.415,1.835-5.104,2.432c-6.275,2.22-14.288,2.838-20.757,1.2
					c-3.067-0.776-5.986-2.066-8.671-3.734c-1.329-0.826-2.599-1.744-3.812-2.731c-0.879-0.716-2.042-1.873-2.515-2.925
					c1.721-0.634,3.238-0.77,4.741-1.961c1.236-0.979,2.191-2.3,2.79-3.755c1.012-2.46,1.473-29.185,1.049-29.185
					c0.003,0,32.142,0,32.142,0c-0.1-0.001,0.087,16.184,0.149,17.819c0.125,3.294-0.487,6.614-0.021,9.878
					c0.264,1.853,1.051,3.752,2.496,4.995c0.749,0.645,1.59,1.012,2.54,1.25c1.296,0.324,1.46,0.086,0.773,1.209
					C245.77,243.444,243.66,245.294,241.326,246.735z"/>
				<path style="fill:#E79E8B;" d="M255.135,200.045c-0.605,4.886-1.479,9.912-4.19,14.021c-4.373,6.629-12.653,9.555-20.535,10.518
					c-9.653,1.179-20.504-0.416-26.959-7.689c-3.468-3.908-5.264-9.002-6.645-14.041c-1.888-6.891-3.156-13.952-3.783-21.069
					c-0.539-6.123-0.568-12.49,1.782-18.17c3.084-7.453,10.016-12.837,17.609-15.56c7.592-2.723,15.83-3.065,23.888-2.718
					c3.837,0.166,7.729,0.494,11.318,1.86c3.63,1.381,8.451,4.683,8.717,8.985c0.128,2.066-0.382,4.305-0.328,6.431
					C256.327,175.107,256.684,187.532,255.135,200.045z"/>
				<g>
					<path style="fill:#E79E8B;" d="M184.22,183.626c-0.933,2.749-0.512,5.928,0.909,8.427c1.292,2.272,3.514,4.059,5.999,4.201
						c2.039,0.116,4.081-0.916,5.387-2.594c2.496-3.206,2.125-10.153-0.464-13.351C192.473,175.891,185.851,178.819,184.22,183.626z
						"/>
					<path style="fill:none;stroke:#222221;stroke-linecap:round;stroke-linejoin:round;stroke-miterlimit:10;" d="M195.122,188.036
						c-0.435-1.685-1.717-3.128-3.339-3.757c-1.622-0.63-3.542-0.431-5,0.519"/>
				</g>
				<g>
					<path style="fill:#E79E8B;" d="M267.348,183.626c0.933,2.749,0.512,5.928-0.909,8.427c-1.292,2.272-3.514,4.059-5.999,4.201
						c-2.039,0.116-4.081-0.916-5.387-2.594c-2.496-3.206-2.125-10.153,0.464-13.351
						C259.095,175.891,265.717,178.819,267.348,183.626z"/>
					<path style="fill:none;stroke:#222221;stroke-linecap:round;stroke-linejoin:round;stroke-miterlimit:10;" d="M256.446,188.036
						c0.435-1.685,1.717-3.128,3.339-3.757c1.622-0.63,3.542-0.431,4.999,0.519"/>
				</g>
				<g>
					
						<ellipse style="fill:none;stroke:#6771BA;stroke-width:2;stroke-linecap:round;stroke-linejoin:round;stroke-miterlimit:10;" cx="242.714" cy="180.626" rx="13.439" ry="14.914"/>
					
						<ellipse style="fill:none;stroke:#6771BA;stroke-width:2;stroke-linecap:round;stroke-linejoin:round;stroke-miterlimit:10;" cx="205.268" cy="180.626" rx="13.44" ry="14.914"/>
					
						<line style="fill:none;stroke:#6771BA;stroke-width:2;stroke-linecap:round;stroke-linejoin:round;stroke-miterlimit:10;" x1="229.275" y1="180.626" x2="218.708" y2="180.626"/>
				</g>
				<g>
					<defs>
						<path id="SVGID_00000148622665114770515650000000847096818563000758_" d="M241.326,246.735
							c-1.652,1.02-3.415,1.835-5.104,2.432c-6.275,2.22-14.288,2.838-20.757,1.2c-3.067-0.776-5.986-2.066-8.671-3.734
							c-1.329-0.826-2.599-1.744-3.812-2.731c-0.879-0.716-2.042-1.873-2.515-2.925c1.721-0.634,3.238-0.77,4.741-1.961
							c1.236-0.979,2.191-2.3,2.79-3.755c1.012-2.46,1.473-29.185,1.049-29.185c0.003,0,32.142,0,32.142,0
							c-0.1-0.001,0.087,16.184,0.149,17.819c0.125,3.294-0.487,6.614-0.021,9.878c0.264,1.853,1.051,3.752,2.496,4.995
							c0.749,0.645,1.59,1.012,2.54,1.25c1.296,0.324,1.46,0.086,0.773,1.209C245.77,243.444,243.66,245.294,241.326,246.735z"/>
					</defs>
					<clipPath id="SVGID_00000058588982273119235200000003115490092221024651_">
						<use xlink:href="#SVGID_00000148622665114770515650000000847096818563000758_"  style="overflow:visible;"/>
					</clipPath>
					<path style="clip-path:url(#SVGID_00000058588982273119235200000003115490092221024651_);fill:#222221;" d="M203.519,229.169
						c0.111,0.719,0.293,1.483,0.833,1.969c0.579,0.521,1.439,0.597,2.207,0.469c0.768-0.128,1.498-0.429,2.264-0.567
						c2.298-0.414,4.598,0.665,6.933,0.734c3.252,0.096,6.214-1.746,9.372-2.53c3.339-0.828,10.626-0.347,11.918-4.446
						c0.041-0.129,0.075-0.269,0.034-0.398c-0.037-0.119-0.132-0.211-0.232-0.286c-0.489-0.367-1.149-0.445-1.752-0.344
						c-3.7,0.616-7.021,1.74-10.886,1.674c-2.1-0.036-4.15-0.314-6.211-0.699c-1.76-0.329-3.241-0.33-4.949-1.039
						c-2.227-0.924-4.96-3.542-7.561-2.123C203.171,222.848,203.175,226.948,203.519,229.169z"/>
				</g>
				<path d="M210.048,167.545c-4.256,1.111-8.576,1.835-12.936,2.381c-1.946,0.243-3.213,0.386-5.189,0.045
					c-2.286-0.395-4.582-0.743-6.895-0.929c-1.854-0.149-3.736-0.198-5.521-0.72c-1.785-0.522-3.505-1.6-4.315-3.273
					c2.366-0.552,4.65-1.457,6.752-2.676c-1.166-0.164-2.277-0.706-3.122-1.527c1.68-0.977,3.348-2.02,4.713-3.402
					c4.063-4.114,1.644-9.252,3.413-14.158c2.005-5.563,6.806-9.635,11.791-12.818c8.912-5.69,19.938-9.448,30.062-6.399
					c1.456,0.438,2.896,1.016,4.415,1.096c1.355,0.072,2.695-0.259,4.04-0.447c7.462-1.043,15.087,2.465,20.235,7.965
					c5.91,6.313,6.113,13.59,10.399,20.58c2.283,3.724,6.028,6.799,10.376,7.221c0.517,0.05-5.805,7.171-6.792,7.735
					c-2.841,1.625-6.644,2.859-9.747,1.488c-5.269-2.327-10.187-6.272-14.208-10.356c-3.566-3.621-7.358-7.564-10.181-11.82
					c-3.143,8.028-10.471,13.839-18.45,17.103C216.104,165.773,213.125,166.742,210.048,167.545z"/>
				<circle style="fill:#222221;" cx="206.201" cy="180.676" r="2.541"/>
				<path style="fill:#222221;" d="M245.686,180.676c0,1.404-1.138,2.541-2.541,2.541c-1.404,0-2.541-1.138-2.541-2.541
					s1.138-2.541,2.541-2.541C244.548,178.135,245.686,179.273,245.686,180.676z"/>
				<path style="fill:none;stroke:#222221;stroke-linecap:round;stroke-linejoin:round;stroke-miterlimit:10;" d="M216.128,201.646
					c0.497,2.413,2.297,4.517,4.604,5.38c1.51,0.565,3.167,0.616,4.771,0.464c1.723-0.164,3.461-0.57,4.918-1.505
					c1.457-0.935,2.602-2.46,2.772-4.182"/>
			</g>
			<g>
				<g>
					<path d="M197.547,409.234l-7.114,0.938c-4.24,0.559-8.13-2.425-8.69-6.665L166.404,287.21c-0.559-4.24,2.425-8.13,6.665-8.69
						l7.114-0.938c4.24-0.559,8.13,2.425,8.69,6.665l15.339,116.298C204.77,404.785,201.787,408.675,197.547,409.234z"/>
					<path style="fill:#6771BA;" d="M286.628,397.639l-97.013,12.795L172.23,278.631l97.013-12.796
						c1.853-0.244,3.553,1.06,3.798,2.913l16.499,125.093C289.785,395.695,288.481,397.395,286.628,397.639z"/>
					<path style="fill:#A678B0;" d="M291.897,388.563l-92.44,4.424l-6.093-127.304l92.44-4.424c1.615-0.077,2.986,1.169,3.064,2.784
						l5.813,121.457C294.758,387.115,293.512,388.486,291.897,388.563z"/>
					<path style="fill:#F2E6B3;" d="M291.872,389.576c0,0-89.748,4.296-89.76,4.296c0,0-0.662-13.835-0.699-14.599
						c-0.559-11.682-1.118-23.364-1.677-35.046c-0.643-13.425-1.285-26.849-1.928-40.274c-0.277-5.78-0.553-11.559-0.83-17.339
						c-0.245-5.129,0.473-12.371-2.791-16.608c-0.472-0.612-1.087-1.265-0.974-2.036c0.13-0.884,1.128-1.3,1.988-1.439
						c2.632-0.426,5.625-0.192,8.322-0.321c10.304-0.493,20.609-0.986,30.913-1.48c11.603-0.555,23.205-1.111,34.808-1.666
						c5.512-0.264,11.023-0.528,16.535-0.791c1.655-0.079,3.063,1.236,3.144,2.938l5.798,121.142
						C294.803,388.053,293.527,389.497,291.872,389.576z"/>
					<path d="M199.255,271.504c-0.683-0.056-1.362-0.073-2.039,0.024c-0.14,0.032-0.281,0.063-0.42,0.103
						c-0.596,0.175-1.225,0.003-1.627-0.469c-0.217-0.255-0.355-0.568-0.371-0.907c-0.013-0.276,0.073-0.526,0.171-0.778
						c0.428-1.104,1.125-2.129,2.012-2.916c0.464-0.411,0.954-0.773,1.464-1.104c-0.004,0-0.007,0-0.01,0
						c-1.543-0.002-3.429-0.024-5.27,0.173c-3.918,0.419-7.633,1.827-7.409,6.513l5.668,118.416
						c0.161,3.358,2.945,5.953,6.218,5.796l1.78-0.085c3.274-0.157,5.797-3.006,5.636-6.363c0,0-5.616-117.331-5.667-118.392
						C199.346,271.509,199.3,271.508,199.255,271.504z"/>
					<path style="fill:#FABC5F;" d="M292.054,391.835l-92.44,4.424l-6.093-127.304l92.44-4.424c1.615-0.077,2.986,1.169,3.063,2.784
						l5.813,121.457C294.915,390.386,293.668,391.758,292.054,391.835z"/>
				</g>
				<path d="M272.28,303.616l-58.468,2.885c-0.446,0.022-0.825-0.322-0.847-0.768l-0.36-7.285c-0.022-0.446,0.322-0.825,0.768-0.847
					l58.468-2.885c0.446-0.022,0.825,0.322,0.847,0.768l0.359,7.285C273.07,303.214,272.726,303.594,272.28,303.616z"/>
			</g>
			<path style="fill:#F2A191;" d="M118.55,395.467c15.075,22.988,59.849,3.978,79.342-1.628c10.363-2.98,20.429-6.859,30.604-10.408
				c3.906-1.363,7.553-3.372,11.411-4.858c1.826-0.704,3.66-1.374,5.607-1.496c1.709-0.107,3.731-1.186,5.405-1.002
				c0.765,0.084,1.444,0.507,2.105,0.901c5.476,3.265,11.717,5.24,18.075,5.72c3.84,0.29,7.702,0.043,11.548,0.232
				c3.717,0.183,14.038,5.434,15.749,0.096c0.527-1.645-0.337-3.615-1.903-4.342c4.443-0.385,4.682-3.126,1.944-6.199
				c-0.738-0.828-1.762-1.094-2.594-1.79c1.129,0.294,2.329,0.274,3.42-0.163c0.513-0.205,1.011-0.513,1.292-0.988
				c0.57-0.967,0.044-2.21-0.632-3.107c-1.266-1.681-3.074-2.947-5.087-3.563c-0.007-0.507-0.072-0.881,0.198-1.288
				c1.198,0.371,2.405,0.679,3.68,0.551c0.418-0.042,0.852-0.131,1.174-0.401c0.708-0.593,0.54-1.75,0.062-2.54
				c-0.603-0.998-1.558-1.724-2.489-2.426c-4.331-3.262-8.352-5.757-13.69-6.828c-16.725-3.357-32.992-2.705-49.655-0.566
				c-9.689,1.243-19.429,2.039-29.165,2.796c-11.444,0.891-22.901,1.689-34.307,2.999c-4.81,0.552-9.913,2.241-14.601,2.574
				c-4.791,0.34-9.952-1.721-14.637-2.551c-5.295-0.939-10.989-1.156-15.81,1.227c-3.896,1.927-6.828,5.364-9.281,8.953
				c-1.281,1.874-2.485,3.866-2.952,6.087c-0.421,2-0.221,4.072,0.006,6.102c0.642,5.741,1.538,11.616,4.403,16.632
				C118.02,394.631,118.281,395.055,118.55,395.467z"/>
			<g>
				<defs>
					<path id="SVGID_00000100354024947277182030000013992258812444946819_" d="M333.192,253.25
						c-4.718-2.821-13.221-3.036-18.4-3.795c-6.768-0.991-13.57-1.733-20.324-2.819c-14.172-2.279-28.378-4.367-42.636-6.031
						c-15.685-1.449-31.65-2.757-47.214,0.076c-4.671,1.958-0.101,7.614,2.335,10.184c6.48,6.835,15.145,11.208,21.678,17.892
						c6.836,6.994,12.197,16.459,14.999,25.815c1.366,4.56,1.545,8.833,5.771,11.46c5.187,3.223,12.263,4.955,18.074,6.695
						c12.035,3.605,24.518,5.715,37.07,6.239c8.963,0.375,18.064-0.036,26.772,2.118c-0.046-0.011-0.708-13.816-0.914-15.306
						c-0.707-5.117-2.596-9.354-2.659-14.575c-0.082-6.859,0.083-13.731,0.345-20.585c0.133-3.467,0.225-7.228,1.465-10.515
						c1.024-2.713,3.207-3.796,4.35-6.256C333.773,253.529,333.535,253.331,333.192,253.25z"/>
				</defs>
				<clipPath id="SVGID_00000106853056524424435380000018150523088649517958_">
					<use xlink:href="#SVGID_00000100354024947277182030000013992258812444946819_"  style="overflow:visible;"/>
				</clipPath>
				
					<path style="clip-path:url(#SVGID_00000106853056524424435380000018150523088649517958_);fill:none;stroke:#FABC5F;stroke-linecap:round;stroke-linejoin:round;stroke-miterlimit:10;" d="
					M324.102,249.178c-9.312,25.635-9.348,54.53-0.101,80.188"/>
				
					<path style="clip-path:url(#SVGID_00000106853056524424435380000018150523088649517958_);fill:none;stroke:#FABC5F;stroke-linecap:round;stroke-linejoin:round;stroke-miterlimit:10;" d="
					M318.49,248.662c-10.462,25.879-10.192,55.91,0.736,81.596"/>
			</g>
			<path style="fill:none;stroke:#000000;stroke-linecap:round;stroke-linejoin:round;stroke-miterlimit:10;" d="M161.154,357.007
				c-5.284,1.547-10.323,3.926-14.875,7.023"/>
			<path style="fill:none;stroke:#000000;stroke-linecap:round;stroke-linejoin:round;stroke-miterlimit:10;" d="M359.134,253.394
				c2.141,1.302,4.114,2.882,5.853,4.687"/>
			<path style="fill:none;stroke:#000000;stroke-linecap:round;stroke-linejoin:round;stroke-miterlimit:10;" d="M397.637,282.444
				c-0.817,2.984-2.946,5.583-5.71,6.973"/>
			<path style="fill:none;stroke:#000000;stroke-linecap:round;stroke-linejoin:round;stroke-miterlimit:10;" d="M384.115,137.549
				c1.957,2.399,3.206,5.368,3.551,8.445"/>
			<path style="fill:none;stroke:#FABC5F;stroke-linecap:round;stroke-linejoin:round;stroke-miterlimit:10;" d="M256.446,166.787
				c2.247,1.114,5.8,3.933,8.195,3.191"/>
			<path style="fill:none;stroke:#FABC5F;stroke-linecap:round;stroke-linejoin:round;stroke-miterlimit:10;" d="M180.055,168.46
				c1.345,0.133,2.682,0.334,4.018,0.536c3.556,0.536,7.112,1.071,10.668,1.607"/>
			<path style="fill:none;stroke:#FABC5F;stroke-linecap:round;stroke-linejoin:round;stroke-miterlimit:10;" d="M223.75,155.969
				c-4.597,3.286-10.005,5.427-15.605,6.18"/>
			<path style="fill:none;stroke:#FABC5F;stroke-linecap:round;stroke-linejoin:round;stroke-miterlimit:10;" d="M237.408,147.993
				c-0.221-5.093-0.442-10.187-0.663-15.28"/>
		</g>
	</g>
</g>
</svg>
