<?xml version="1.0" standalone="no"?>
<svg xmlns:xlink="http://www.w3.org/1999/xlink" id="wave" style="transform:rotate(0deg); transition: 0.3s" viewBox="0 0 1440 160" version="1.1" xmlns="http://www.w3.org/2000/svg"><defs><linearGradient id="sw-gradient-0" x1="0" x2="0" y1="1" y2="0"><stop stop-color="rgba(255, 255, 255, 1)" offset="0%"/><stop stop-color="rgba(255, 255, 255, 1)" offset="100%"/></linearGradient></defs><path style="transform:translate(0, 0px); opacity:1" fill="url(#sw-gradient-0)" d="M0,16L40,16C80,16,160,16,240,13.3C320,11,400,5,480,18.7C560,32,640,64,720,85.3C800,107,880,117,960,114.7C1040,112,1120,96,1200,80C1280,64,1360,48,1440,56C1520,64,1600,96,1680,90.7C1760,85,1840,43,1920,45.3C2000,48,2080,96,2160,96C2240,96,2320,48,2400,26.7C2480,5,2560,11,2640,21.3C2720,32,2800,48,2880,69.3C2960,91,3040,117,3120,125.3C3200,133,3280,123,3360,122.7C3440,123,3520,133,3600,136C3680,139,3760,133,3840,128C3920,123,4000,117,4080,114.7C4160,112,4240,112,4320,101.3C4400,91,4480,69,4560,50.7C4640,32,4720,16,4800,18.7C4880,21,4960,43,5040,66.7C5120,91,5200,117,5280,114.7C5360,112,5440,80,5520,69.3C5600,59,5680,69,5720,74.7L5760,80L5760,160L5720,160C5680,160,5600,160,5520,160C5440,160,5360,160,5280,160C5200,160,5120,160,5040,160C4960,160,4880,160,4800,160C4720,160,4640,160,4560,160C4480,160,4400,160,4320,160C4240,160,4160,160,4080,160C4000,160,3920,160,3840,160C3760,160,3680,160,3600,160C3520,160,3440,160,3360,160C3280,160,3200,160,3120,160C3040,160,2960,160,2880,160C2800,160,2720,160,2640,160C2560,160,2480,160,2400,160C2320,160,2240,160,2160,160C2080,160,2000,160,1920,160C1840,160,1760,160,1680,160C1600,160,1520,160,1440,160C1360,160,1280,160,1200,160C1120,160,1040,160,960,160C880,160,800,160,720,160C640,160,560,160,480,160C400,160,320,160,240,160C160,160,80,160,40,160L0,160Z"/></svg>