<svg id="visual" viewBox="0 0 900 600" width="900" height="600" xmlns="http://www.w3.org/2000/svg" xmlns:xlink="http://www.w3.org/1999/xlink" version="1.1"><rect x="0" y="0" width="900" height="600" fill="#002233"></rect><path d="M0 416L21.5 409.5C43 403 86 390 128.8 404.7C171.7 419.3 214.3 461.7 257.2 475.3C300 489 343 474 385.8 458.7C428.7 443.3 471.3 427.7 514.2 416.7C557 405.7 600 399.3 642.8 412.7C685.7 426 728.3 459 771.2 457.8C814 456.7 857 421.3 878.5 403.7L900 386L900 601L878.5 601C857 601 814 601 771.2 601C728.3 601 685.7 601 642.8 601C600 601 557 601 514.2 601C471.3 601 428.7 601 385.8 601C343 601 300 601 257.2 601C214.3 601 171.7 601 128.8 601C86 601 43 601 21.5 601L0 601Z" fill="#eaebec" stroke-linecap="round" stroke-linejoin="miter"></path></svg>