<?xml version="1.0" encoding="UTF-8"?>
<svg version="1.1" xmlns="http://www.w3.org/2000/svg" width="300" height="300">
<path d="M0 0 C99 0 198 0 300 0 C300 99 300 198 300 300 C201 300 102 300 0 300 C0 201 0 102 0 0 Z " fill="#FEFEFE" transform="translate(0,0)"/>
<path d="M0 0 C6.9595866 5.39156882 10.54245008 12.01680353 14 20 C14.37769531 20.763125 14.75539063 21.52625 15.14453125 22.3125 C16.36910113 26.1595506 16.32906947 29.79937416 16.3125 33.8125 C16.32861328 34.58142578 16.34472656 35.35035156 16.36132812 36.14257812 C16.36604543 41.73258754 15.21700382 45.86988826 13 51 C13.67546875 51.0825 14.3509375 51.165 15.046875 51.25 C18.82826979 52.21035423 21.92549771 54.02737001 25.25 56 C25.88679688 56.36867188 26.52359375 56.73734375 27.1796875 57.1171875 C31.82573342 59.82573342 31.82573342 59.82573342 33 61 C33.625 63.6875 33.625 63.6875 33 67 C30.27064527 69.46307622 27.1943291 71.20289585 24 73 C22.98615234 73.68010132 21.97230469 74.36020264 20.92773438 75.06091309 C16.50811236 77.57044558 12.49393125 77.56447719 7.50390625 77.51757812 C6.57778534 77.5245874 5.65166443 77.53159668 4.69747925 77.53881836 C1.6521764 77.55634782 -1.39218857 77.54479335 -4.4375 77.53125 C-6.56307147 77.53394636 -8.68864173 77.53782998 -10.81420898 77.54284668 C-15.26265236 77.5487349 -19.71077382 77.54020035 -24.15917969 77.52148438 C-29.85212327 77.49869551 -35.54431247 77.51182218 -41.23722839 77.53577423 C-45.62452852 77.55025032 -50.01165073 77.54561785 -54.3989563 77.53526306 C-56.49765106 77.5326008 -58.59636214 77.53584787 -60.69503784 77.54518127 C-63.63176057 77.5553765 -66.56727329 77.53980381 -69.50390625 77.51757812 C-70.3654129 77.52567505 -71.22691956 77.53377197 -72.11453247 77.54211426 C-77.87396522 77.46164214 -81.22091235 76.23536808 -86 73 C-86 71.68 -86 70.36 -86 69 C-85.34 69 -84.68 69 -84 69 C-83.4740625 69.9590625 -83.4740625 69.9590625 -82.9375 70.9375 C-80.43541667 74.04791667 -80.43541667 74.04791667 -72 74 C-72 67.4 -72 60.8 -72 54 C-74.97 54 -77.94 54 -81 54 C-80 52 -80 52 -78.234375 51.37890625 C-75.85849677 50.97600382 -73.65820483 50.90208522 -71.25 50.9375 C-70.45078125 50.94652344 -69.6515625 50.95554688 -68.828125 50.96484375 C-68.22484375 50.97644531 -67.6215625 50.98804688 -67 51 C-67.31582031 50.14019531 -67.63164063 49.28039062 -67.95703125 48.39453125 C-71.52811162 36.77180149 -70.48697746 24.99942835 -65.65625 14.00390625 C-60.81396909 5.22156187 -53.23882643 -1.95991406 -43.9375 -5.6875 C-42.91527344 -6.10386719 -41.89304688 -6.52023438 -40.83984375 -6.94921875 C-26.94651185 -12.08994266 -11.95322998 -8.08546681 0 0 Z " fill="#7AB2E6" transform="translate(174,76)"/>
<path d="M0 0 C13.5458131 -0.71995463 25.42823308 2.35948039 36.25390625 10.74609375 C41.90256351 15.90169933 44.98959268 22.04921876 48 29 C48.37769531 29.763125 48.75539062 30.52625 49.14453125 31.3125 C50.36910113 35.1595506 50.32906947 38.79937416 50.3125 42.8125 C50.32861328 43.58142578 50.34472656 44.35035156 50.36132812 45.14257812 C50.36604543 50.73258754 49.21700382 54.86988826 47 60 C47.67546875 60.0825 48.3509375 60.165 49.046875 60.25 C52.82826979 61.21035423 55.92549771 63.02737001 59.25 65 C59.88679688 65.36867188 60.52359375 65.73734375 61.1796875 66.1171875 C65.82573342 68.82573342 65.82573342 68.82573342 67 70 C67.625 72.6875 67.625 72.6875 67 76 C63.2211608 79.43099626 59.03957146 82.01751474 54 83 C54.66 81.02 55.32 79.04 56 77 C55.67 76.67 55.34 76.34 55 76 C55.08937803 74.47480724 55.24537146 72.95318071 55.4375 71.4375 C55.59025391 70.19806641 55.59025391 70.19806641 55.74609375 68.93359375 C55.82988281 68.29550781 55.91367188 67.65742188 56 67 C53.69 66.34 51.38 65.68 49 65 C48.236875 65.99 47.47375 66.98 46.6875 68 C45.38671875 69.6875 45.38671875 69.6875 44 71 C43.01 71 42.02 71 41 71 C42.875 66.25 42.875 66.25 44 64 C42.16223999 64.03927612 42.16223999 64.03927612 40.28735352 64.0793457 C35.70844033 64.17037128 31.12960587 64.22743849 26.55004883 64.2746582 C24.57432573 64.29968371 22.5986941 64.3337151 20.62329102 64.37719727 C17.77076557 64.43837937 14.9194719 64.46632942 12.06640625 64.48828125 C11.19415909 64.51408768 10.32191193 64.5398941 9.42323303 64.56648254 C1.30297371 64.57013249 -4.47633769 61.3405675 -10.5625 56.125 C-14.18432802 51.56753307 -13.58935862 46.18689175 -13.50390625 40.62109375 C-12.68604808 34.7439269 -10.51620426 30.9766638 -6 27.1875 C-4.9790625 26.31158203 -4.9790625 26.31158203 -3.9375 25.41796875 C0.94084135 21.84773103 7.24576524 22.2432396 13 23 C18.3124729 25.33498072 22.99581024 28.99301707 26 34 C26.75 36.75 26.75 36.75 27 40 C27.06316406 40.70511719 27.12632812 41.41023438 27.19140625 42.13671875 C27.50036405 48.00691697 26.36770722 51.18898968 23 56 C22.01 56.99 21.02 57.98 20 59 C23.3 59 26.6 59 30 59 C34.4351347 51.09991631 34.98206368 43.9774508 34 35 C31.76703019 27.15475311 25.91484712 21.98933488 19 18 C13.75917563 15.84426785 8.62320221 14.598213 3 14 C3.33 13.34 3.66 12.68 4 12 C13.90668511 11.33338194 20.56150893 12.93177096 28.25 19.3125 C34.49630162 25.13574534 38.51933123 30.86914037 39.3359375 39.5859375 C39.41460772 47.21694839 39.21564506 52.5447935 35 59 C37.64 59.33 40.28 59.66 43 60 C44.75209012 53.97502608 45.28185255 48.63206354 45.1875 42.375 C45.18685547 41.55515625 45.18621094 40.7353125 45.18554688 39.890625 C45.15369684 35.48824247 44.87633055 31.33257825 44 27 C43.34 27 42.68 27 42 27 C41.649375 25.989375 41.29875 24.97875 40.9375 23.9375 C37.40463994 15.82500653 29.79652796 10.66436814 22 7 C14.5002002 4.42319713 6.8881868 3.45030988 -1 3 C-0.67 2.01 -0.34 1.02 0 0 Z " fill="#89AFE3" transform="translate(140,67)"/>
<path d="M0 0 C6.3672787 4.17657861 12.55715232 9.47830661 16.79296875 15.83203125 C16.79296875 17.15203125 16.79296875 18.47203125 16.79296875 19.83203125 C17.45296875 19.83203125 18.11296875 19.83203125 18.79296875 19.83203125 C20.91448499 25.05552542 21.12726343 29.66246349 21.10546875 35.20703125 C21.12158203 36.01914063 21.13769531 36.83125 21.15429688 37.66796875 C21.158874 43.38022547 20.07458912 47.59453857 17.79296875 52.83203125 C14.82296875 52.83203125 11.85296875 52.83203125 8.79296875 52.83203125 C9.78296875 51.06859375 9.78296875 51.06859375 10.79296875 49.26953125 C13.99065814 42.04046916 14.00852339 33.77336877 12.1328125 26.1484375 C8.4388733 16.92158505 1.68928231 10.88724132 -7.20703125 6.83203125 C-7.99722656 6.46851562 -8.78742188 6.105 -9.6015625 5.73046875 C-17.10780838 3.1421081 -24.66302836 4.13248907 -31.70703125 7.51953125 C-35.83486401 9.83329014 -39.17844832 12.1409458 -42.20703125 15.83203125 C-42.90828125 16.61578125 -43.60953125 17.39953125 -44.33203125 18.20703125 C-49.43452755 25.35052607 -50.40062634 32.0617735 -49.54736328 40.84033203 C-48.20016367 48.72444568 -43.86584942 55.9804982 -37.70703125 61.01953125 C-30.77226081 65.92303497 -25.03841251 67.24641797 -16.73046875 67.0625 C-14.90755317 67.06040227 -13.08463538 67.05979565 -11.26171875 67.06054688 C-8.41271279 67.04602118 -5.56535824 67.01922012 -2.71679688 66.96606445 C0.05057596 66.92106846 2.81439645 66.92575501 5.58203125 66.9375 C6.43109039 66.90867233 7.28014954 66.87984467 8.15493774 66.85014343 C10.61767176 66.88018663 12.47870302 66.97941264 14.79296875 67.83203125 C17.01243576 70.26222959 18.45205818 72.83899278 19.79296875 75.83203125 C14.2103152 75.90707726 8.62796545 75.96104966 3.04492188 75.99682617 C1.15196609 76.01176549 -0.740956 76.0321244 -2.63378906 76.05834961 C-33.71210166 76.47766018 -33.71210166 76.47766018 -44.20703125 66.83203125 C-51.35122527 59.2021854 -56.77667422 51.50129939 -57.20703125 40.83203125 C-57.25859375 39.82785156 -57.31015625 38.82367188 -57.36328125 37.7890625 C-57.64165824 27.89508034 -56.3445542 19.82940964 -50.20703125 11.83203125 C-49.62953125 11.00703125 -49.05203125 10.18203125 -48.45703125 9.33203125 C-36.41136959 -4.05203727 -16.34359685 -7.99891129 0 0 Z " fill="#F9FBFD" transform="translate(165.20703125,74.16796875)"/>
<path d="M0 0 C0.928125 0.598125 1.85625 1.19625 2.8125 1.8125 C9.43212208 8.43212208 11.25796702 14.94222755 11.32788086 24.15087891 C11.24107778 29.80879951 10.17597163 35.82402837 6 40 C4.14712498 40.07226502 2.29166122 40.0838122 0.4375 40.0625 C-0.57441406 40.05347656 -1.58632812 40.04445312 -2.62890625 40.03515625 C-3.80259766 40.01775391 -3.80259766 40.01775391 -5 40 C-4.57847656 39.45730469 -4.15695313 38.91460937 -3.72265625 38.35546875 C-2.90087891 37.28232422 -2.90087891 37.28232422 -2.0625 36.1875 C-1.24458984 35.12595703 -1.24458984 35.12595703 -0.41015625 34.04296875 C2.6297191 29.6389388 2.33393916 25.13752554 2 20 C0.66848722 13.34243608 -1.65306944 9.80909231 -7 5.6875 C-12.01976627 3.02041036 -17.48717759 3.38490126 -23 4 C-28.45248198 5.71652211 -31.7878009 9.39619673 -35 14 C-36.99767213 19.9930164 -37.54178484 28.50111558 -34.94140625 34.40234375 C-31.19749562 39.03911112 -25.5669176 42.40342572 -19.66271973 43.39091492 C-17.11273197 43.55379303 -14.58640021 43.60579702 -12.03125 43.609375 C-11.11033569 43.62591125 -10.18942139 43.64244751 -9.24060059 43.65948486 C-6.3269974 43.70769628 -3.4139151 43.72927583 -0.5 43.75 C1.487005 43.77818217 3.47398601 43.80811272 5.4609375 43.83984375 C10.30724873 43.91344789 15.15327534 43.96318622 20 44 C18.87548273 46.9719385 17.77706209 49.33440687 16 52 C13.40763544 52.29273276 11.05786765 52.39612889 8.46484375 52.36328125 C7.33581383 52.36402901 7.33581383 52.36402901 6.18397522 52.36479187 C4.58592093 52.36244812 2.98786319 52.35270186 1.38989258 52.33618164 C-1.02882918 52.31282514 -3.4464303 52.31558863 -5.86523438 52.32226562 C-27.36423838 52.28422983 -27.36423838 52.28422983 -36 45 C-43.4631381 36.90513958 -45.51662558 30.63923962 -45.24609375 19.66796875 C-44.71890748 11.81038295 -41.64119923 6.40729585 -36 1 C-25.17997136 -7.51789489 -11.36521398 -7.35647059 0 0 Z " fill="#F8FAFD" transform="translate(164,87)"/>
<path d="M0 0 C4.13565577 2.41694169 7.13275337 5.000598 9.79296875 9.04296875 C10.2890625 12.19921875 10.2890625 12.19921875 10.23046875 15.54296875 C10.22917969 16.64640625 10.22789062 17.74984375 10.2265625 18.88671875 C9.49817256 24.18887252 6.74106775 27.57342721 2.79296875 31.04296875 C-1.72811818 33.75368468 -6.0764226 33.54708561 -11.20703125 33.04296875 C-16.71697106 31.27562957 -19.42165859 27.92569374 -22.20703125 23.04296875 C-23.9767799 17.7337228 -23.90538889 12.96882925 -21.70703125 7.85546875 C-17.25567817 -0.0632541 -8.50801114 -3.68931456 0 0 Z " fill="#FAF8F7" transform="translate(153.20703125,93.95703125)"/>
<path d="M0 0 C13.5458131 -0.71995463 25.42823308 2.35948039 36.25390625 10.74609375 C41.90256351 15.90169933 44.98959268 22.04921876 48 29 C48.37769531 29.763125 48.75539062 30.52625 49.14453125 31.3125 C50.36910113 35.1595506 50.32906947 38.79937416 50.3125 42.8125 C50.32861328 43.58142578 50.34472656 44.35035156 50.36132812 45.14257812 C50.36604543 50.73258754 49.21700382 54.86988826 47 60 C47.67546875 60.0825 48.3509375 60.165 49.046875 60.25 C52.82826979 61.21035423 55.92549771 63.02737001 59.25 65 C59.88679688 65.36867188 60.52359375 65.73734375 61.1796875 66.1171875 C65.82573342 68.82573342 65.82573342 68.82573342 67 70 C67.625 72.6875 67.625 72.6875 67 76 C63.2211608 79.43099626 59.03957146 82.01751474 54 83 C54.66 81.02 55.32 79.04 56 77 C55.67 76.67 55.34 76.34 55 76 C55.08937803 74.47480724 55.24537146 72.95318071 55.4375 71.4375 C55.59025391 70.19806641 55.59025391 70.19806641 55.74609375 68.93359375 C55.82988281 68.29550781 55.91367188 67.65742188 56 67 C53.69 66.34 51.38 65.68 49 65 C48.236875 65.99 47.47375 66.98 46.6875 68 C45.38671875 69.6875 45.38671875 69.6875 44 71 C43.01 71 42.02 71 41 71 C41.66 69.35 42.32 67.7 43 66 C43.66 66 44.32 66 45 66 C45 65.01 45 64.02 45 63 C37.41 63 29.82 63 22 63 C22.33 62.34 22.66 61.68 23 61 C25.02488628 60.71073053 27.05244016 60.42727846 29.08984375 60.24609375 C31.08252033 60.09593122 31.08252033 60.09593122 33 59 C34.71233688 59.0870204 36.42175406 59.24097162 38.125 59.4375 C39.03507812 59.53933594 39.94515625 59.64117187 40.8828125 59.74609375 C41.58148438 59.82988281 42.28015625 59.91367188 43 60 C44.75209012 53.97502608 45.28185255 48.63206354 45.1875 42.375 C45.18685547 41.55515625 45.18621094 40.7353125 45.18554688 39.890625 C45.15369684 35.48824247 44.87633055 31.33257825 44 27 C43.34 27 42.68 27 42 27 C41.649375 25.989375 41.29875 24.97875 40.9375 23.9375 C37.40463994 15.82500653 29.79652796 10.66436814 22 7 C14.5002002 4.42319713 6.8881868 3.45030988 -1 3 C-0.67 2.01 -0.34 1.02 0 0 Z " fill="#737CCD" transform="translate(140,67)"/>
<path d="M0 0 C0 0.33 0 0.66 0 1 C-4.455 1.495 -4.455 1.495 -9 2 C-6.03 2.495 -6.03 2.495 -3 3 C-3 3.33 -3 3.66 -3 4 C-3.78503906 4.10957031 -4.57007813 4.21914062 -5.37890625 4.33203125 C-14.54029267 5.71466994 -21.16766315 7.31949286 -28 14 C-33.70320874 22.0825729 -33.71637172 30.4349241 -33 40 C-32.15183334 43.1212533 -30.90899848 45.40709241 -29 48 C-28.57589844 48.62390625 -28.15179688 49.2478125 -27.71484375 49.890625 C-23.23987762 55.82400628 -17.58820421 58.24458859 -10.4375 59.75 C-9.633125 59.8325 -8.82875 59.915 -8 60 C-9.485 60.495 -9.485 60.495 -11 61 C-10.67 61.99 -10.34 62.98 -10 64 C-18.08243775 63.19175622 -25.74921397 59.22795024 -31 53 C-37.23112632 43.70218209 -39.82068032 35.30339031 -38 24 C-36.7669733 20.31055293 -35.15873946 17.22555838 -33 14 C-32.4225 13.0925 -31.845 12.185 -31.25 11.25 C-22.09438338 2.09438338 -12.66702017 -0.51430007 0 0 Z " fill="#87C3EC" transform="translate(153,78)"/>
<path d="M0 0 C1.2065625 0.0309375 1.2065625 0.0309375 2.4375 0.0625 C0.4575 1.0525 0.4575 1.0525 -1.5625 2.0625 C1.0775 2.3925 3.7175 2.7225 6.4375 3.0625 C6.4375 9.6625 6.4375 16.2625 6.4375 23.0625 C3.4675 23.0625 0.4975 23.0625 -2.5625 23.0625 C-3.5525 22.0725 -4.5425 21.0825 -5.5625 20.0625 C-5.5625 19.4025 -5.5625 18.7425 -5.5625 18.0625 C-6.2225 18.0625 -6.8825 18.0625 -7.5625 18.0625 C-7.8925 18.7225 -8.2225 19.3825 -8.5625 20.0625 C-9.32817413 7.48842935 -9.32817413 7.48842935 -7.484375 4.0546875 C-6.125 2.75 -6.125 2.75 -3.5625 1.0625 C-2.5625 0.0625 -2.5625 0.0625 0 0 Z " fill="#FDFEFE" transform="translate(95.5625,126.9375)"/>
<path d="M0 0 C1.74690919 0.2143934 3.4974023 0.40107653 5.25 0.5625 C6.14203125 0.64628906 7.0340625 0.73007813 7.953125 0.81640625 C8.62859375 0.87699219 9.3040625 0.93757813 10 1 C10 1.33 10 1.66 10 2 C9.20078125 2.01417969 8.4015625 2.02835937 7.578125 2.04296875 C-2.85470154 2.49603751 -12.72184057 4.86697928 -20.4765625 12.28125 C-29.54528002 22.51262361 -31.70552342 32.56298584 -31 46 C-30.73680389 49.67597229 -30.41100296 53.33767003 -30 57 C-31.485 57.495 -31.485 57.495 -33 58 C-37.53402554 45.65634678 -36.89428993 32.92653783 -31.65625 21.00390625 C-26.80762647 12.21005839 -19.18564997 5.05745909 -9.9375 1.1875 C-8.91527344 0.74792969 -7.89304688 0.30835937 -6.83984375 -0.14453125 C-3.82515168 -1.05267095 -2.88433451 -0.99023061 0 0 Z " fill="#88D3F4" transform="translate(140,69)"/>
<path d="M0 0 C13.5458131 -0.71995463 25.42823308 2.35948039 36.25390625 10.74609375 C41.90256351 15.90169933 44.98959268 22.04921876 48 29 C48.57234375 30.12921875 48.57234375 30.12921875 49.15625 31.28125 C50.40060582 35.29084097 50.21056326 39.14293637 50.125 43.3125 C50.11597656 44.14845703 50.10695312 44.98441406 50.09765625 45.84570312 C50.07420989 47.89725969 50.03834266 49.94866777 50 52 C49.67 52 49.34 52 49 52 C49 47.38 49 42.76 49 38 C48.34 38 47.68 38 47 38 C47 41.96 47 45.92 47 50 C46.67 50 46.34 50 46 50 C45.93941406 48.84242187 45.87882812 47.68484375 45.81640625 46.4921875 C45.73194498 44.95311543 45.64729982 43.41405345 45.5625 41.875 C45.52318359 41.11445312 45.48386719 40.35390625 45.44335938 39.5703125 C45.20490998 35.31490797 44.79769763 31.19629174 44 27 C43.34 27 42.68 27 42 27 C41.649375 25.989375 41.29875 24.97875 40.9375 23.9375 C37.40463994 15.82500653 29.79652796 10.66436814 22 7 C14.5002002 4.42319713 6.8881868 3.45030988 -1 3 C-0.67 2.01 -0.34 1.02 0 0 Z " fill="#8097D9" transform="translate(140,67)"/>
<path d="M0 0 C0.75732422 0.00644531 1.51464844 0.01289062 2.29492188 0.01953125 C3.08060547 0.03628906 3.86628906 0.05304688 4.67578125 0.0703125 C5.47306641 0.07933594 6.27035156 0.08835937 7.09179688 0.09765625 C9.05742025 0.12119665 11.022889 0.15706703 12.98828125 0.1953125 C12.98828125 1.5153125 12.98828125 2.8353125 12.98828125 4.1953125 C11.33828125 4.1953125 9.68828125 4.1953125 7.98828125 4.1953125 C7.98828125 8.8153125 7.98828125 13.4353125 7.98828125 18.1953125 C9.63828125 17.5353125 11.28828125 16.8753125 12.98828125 16.1953125 C12.11328125 20.0703125 12.11328125 20.0703125 10.98828125 21.1953125 C7.98828125 21.3203125 7.98828125 21.3203125 4.98828125 21.1953125 C3.98828125 20.1953125 3.98828125 20.1953125 3.85546875 17.359375 C3.85804688 16.19148438 3.860625 15.02359375 3.86328125 13.8203125 C3.85941406 12.07621094 3.85941406 12.07621094 3.85546875 10.296875 C3.98828125 7.1953125 3.98828125 7.1953125 4.98828125 4.1953125 C3.33828125 4.1953125 1.68828125 4.1953125 -0.01171875 4.1953125 C-0.07230469 5.08734375 -0.13289062 5.979375 -0.1953125 6.8984375 C-0.27910156 8.06890625 -0.36289063 9.239375 -0.44921875 10.4453125 C-0.53042969 11.60546875 -0.61164063 12.765625 -0.6953125 13.9609375 C-0.94419662 16.50508626 -1.29286817 18.75484498 -2.01171875 21.1953125 C-3.66171875 21.1953125 -5.31171875 21.1953125 -7.01171875 21.1953125 C-6.56857061 18.18190512 -5.90773964 15.99168674 -4.51171875 13.2578125 C-2.99548619 10.16217103 -2.41682126 7.59817357 -2.01171875 4.1953125 C-5.55690759 5.59291155 -5.55690759 5.59291155 -9.01171875 7.1953125 C-7.29470049 2.17633604 -5.48939543 -0.0825473 0 0 Z " fill="#FD8011" transform="translate(144.01171875,98.8046875)"/>
<path d="M0 0 C9.90668511 -0.66661806 16.56150893 0.93177096 24.25 7.3125 C28.65322095 11.4081107 32.95015638 15.88684808 34 22 C34.06743348 24.08234592 34.08514472 26.16668557 34.0625 28.25 C34.05347656 29.32765625 34.04445312 30.4053125 34.03515625 31.515625 C34.02355469 32.33546875 34.01195312 33.1553125 34 34 C33.01 34.495 33.01 34.495 32 35 C31.98582031 34.39414063 31.97164062 33.78828125 31.95703125 33.1640625 C31.48599504 24.88910199 28.93770535 18.4649858 23.5625 12.125 C16.05464346 5.89897263 8.62008663 3.02341347 -1 2 C-0.67 1.34 -0.34 0.68 0 0 Z " fill="#809BDB" transform="translate(144,79)"/>
<path d="M0 0 C13.41245494 -0.76788864 13.41245494 -0.76788864 17.15625 1.04296875 C18.625 2.375 18.625 2.375 21 5 C23.7124618 6.3049484 23.7124618 6.3049484 26 7 C26 7.33 26 7.66 26 8 C17.42 8 8.84 8 0 8 C0 5.36 0 2.72 0 0 Z " fill="#F2FAFD" transform="translate(104,142)"/>
<path d="M0 0 C4.75 1.875 4.75 1.875 7 3 C7 7 7 11 7 15 C3.91190305 16.76462683 2.76687864 17 -1 17 C-3.26180206 15.02802685 -4.75535324 12.72230959 -6 10 C-5.3115249 5.86914942 -2.6854948 3.13307727 0 0 Z " fill="#F5F5FB" transform="translate(189,131)"/>
<path d="M0 0 C1.2065625 0.0309375 1.2065625 0.0309375 2.4375 0.0625 C0.4575 1.0525 0.4575 1.0525 -1.5625 2.0625 C1.0775 2.3925 3.7175 2.7225 6.4375 3.0625 C6.4375 9.6625 6.4375 16.2625 6.4375 23.0625 C3.4675 23.0625 0.4975 23.0625 -2.5625 23.0625 C-3.5525 22.0725 -4.5425 21.0825 -5.5625 20.0625 C-5.5625 19.4025 -5.5625 18.7425 -5.5625 18.0625 C-6.2225 18.0625 -6.8825 18.0625 -7.5625 18.0625 C-7.8925 18.7225 -8.2225 19.3825 -8.5625 20.0625 C-9.32817413 7.48842935 -9.32817413 7.48842935 -7.484375 4.0546875 C-6.125 2.75 -6.125 2.75 -3.5625 1.0625 C-2.5625 0.0625 -2.5625 0.0625 0 0 Z M-2.9375 5.375 C-5.49352252 9.60226802 -5.3786173 14.24667271 -4.5625 19.0625 C-3.58743922 21.03780418 -3.58743922 21.03780418 -1.5625 22.0625 C0.7475 22.0625 3.0575 22.0625 5.4375 22.0625 C5.4375 16.1225 5.4375 10.1825 5.4375 4.0625 C-0.13951458 3.57881389 -0.13951458 3.57881389 -2.9375 5.375 Z " fill="#A7EBFD" transform="translate(95.5625,126.9375)"/>
<path d="M0 0 C0.66 0.33 1.32 0.66 2 1 C2 1.99 2 2.98 2 4 C0.88625 4.5878125 0.88625 4.5878125 -0.25 5.1875 C-4.09195196 7.71969561 -5.57891392 10.67495542 -7 15 C-7.58401765 19.41257777 -7.07703863 23.6918455 -6 28 C-6.66 28 -7.32 28 -8 28 C-8.33 28.66 -8.66 29.32 -9 30 C-11.91829575 27.08170425 -11.30055517 24.81124085 -11.3125 20.75 C-11.32925781 19.44546875 -11.34601563 18.1409375 -11.36328125 16.796875 C-10.87883327 11.7336122 -9.48870868 8.54279179 -5.95703125 4.8828125 C-5.24933594 4.30273438 -4.54164063 3.72265625 -3.8125 3.125 C-3.09707031 2.52945313 -2.38164062 1.93390625 -1.64453125 1.3203125 C-1.10183594 0.88460937 -0.55914062 0.44890625 0 0 Z " fill="#86BFEB" transform="translate(138,91)"/>
<path d="M0 0 C1.74690919 0.2143934 3.4974023 0.40107653 5.25 0.5625 C6.14203125 0.64628906 7.0340625 0.73007813 7.953125 0.81640625 C8.62859375 0.87699219 9.3040625 0.93757813 10 1 C10 1.33 10 1.66 10 2 C9.20078125 2.01417969 8.4015625 2.02835937 7.578125 2.04296875 C-4.23277847 2.55588357 -13.48218986 5.67577645 -22 14 C-22 10.01908054 -20.69917747 8.69225696 -18.1171875 5.7890625 C-13.31444135 1.73065339 -6.25656801 -2.10629481 0 0 Z " fill="#86C5ED" transform="translate(140,69)"/>
<path d="M0 0 C0.33 0.66 0.66 1.32 1 2 C0.67 2.99 0.34 3.98 0 5 C-0.38815981 13.03719133 0.10374569 21.01373388 1 29 C0.01 29.33 -0.98 29.66 -2 30 C-3.62849969 25.64409432 -4.34118446 21.76065388 -4.625 17.125 C-4.69976562 15.97257812 -4.77453125 14.82015625 -4.8515625 13.6328125 C-4.92503906 12.32957031 -4.92503906 12.32957031 -5 11 C-4.34 10.67 -3.68 10.34 -3 10 C-2.349461 7.91388442 -2.349461 7.91388442 -1.9375 5.5 C-1.09393346 1.09393346 -1.09393346 1.09393346 0 0 Z " fill="#9DDEF7" transform="translate(109,97)"/>
<path d="M0 0 C1.98 0 3.96 0 6 0 C6.0825 0.78375 6.165 1.5675 6.25 2.375 C6.71525923 5.14044802 6.71525923 5.14044802 9 6.1875 C9.66 6.455625 10.32 6.72375 11 7 C11.33 7.66 11.66 8.32 12 9 C8.04 9 4.08 9 0 9 C0 6.03 0 3.06 0 0 Z " fill="#DBF2FB" transform="translate(104,130)"/>
<path d="M0 0 C2.64 0 5.28 0 8 0 C7.01 0.33 6.02 0.66 5 1 C4.93941406 1.96421875 4.87882813 2.9284375 4.81640625 3.921875 C4.73261719 5.18515625 4.64882812 6.4484375 4.5625 7.75 C4.48128906 9.00296875 4.40007812 10.2559375 4.31640625 11.546875 C4.07484478 14.18317553 3.75716066 16.48037294 3 19 C1.35 19 -0.3 19 -2 19 C-1.55868372 15.9990493 -0.91404308 13.83524924 0.5 11.125 C2.14408456 7.69982383 2.62394643 4.76053566 3 1 C2.01 0.67 1.02 0.34 0 0 Z " fill="#FD630C" transform="translate(139,101)"/>
<path d="M0 0 C0.99 0 1.98 0 3 0 C5.45153075 4.73898266 5.23154206 9.12062333 5.125 14.3125 C5.11597656 15.14845703 5.10695312 15.98441406 5.09765625 16.84570312 C5.07420989 18.89725969 5.03834266 20.94866777 5 23 C4.67 23 4.34 23 4 23 C4 18.38 4 13.76 4 9 C3.34 9 2.68 9 2 9 C2 12.96 2 16.92 2 21 C1.67 21 1.34 21 1 21 C0.67 14.07 0.34 7.14 0 0 Z " fill="#969FDB" transform="translate(185,96)"/>
<path d="M0 0 C0.66 0 1.32 0 2 0 C2.05434116 2.5419589 2.0938339 5.08273682 2.125 7.625 C2.14175781 8.33785156 2.15851563 9.05070312 2.17578125 9.78515625 C2.21684602 14.2612164 1.69086567 17.77949278 0 22 C-0.99 22 -1.98 22 -3 22 C-3.33 21.34 -3.66 20.68 -4 20 C-3.54625 18.88625 -3.0925 17.7725 -2.625 16.625 C-0.44994115 11.24197764 -0.27771608 5.74584996 0 0 Z " fill="#7985D1" transform="translate(187,105)"/>
<path d="M0 0 C0.33 0.66 0.66 1.32 1 2 C1.66 2 2.32 2 3 2 C2.34 8.6 1.68 15.2 1 22 C0.67 22 0.34 22 0 22 C-0.33 17.71 -0.66 13.42 -1 9 C-1.33 13.29 -1.66 17.58 -2 22 C-2.33 22 -2.66 22 -3 22 C-3.55353075 6.07061503 -3.55353075 6.07061503 0 0 Z " fill="#A2D8F4" transform="translate(118,95)"/>
<path d="M0 0 C0.33 0 0.66 0 1 0 C1.33 2.31 1.66 4.62 2 7 C2.33 5.35 2.66 3.7 3 2 C3.33 2 3.66 2 4 2 C4 4.97 4 7.94 4 11 C5.65 10.34 7.3 9.68 9 9 C8.125 12.875 8.125 12.875 7 14 C4 14.125 4 14.125 1 14 C0 13 0 13 -0.09765625 10.05859375 C-0.08605469 8.86363281 -0.07445312 7.66867188 -0.0625 6.4375 C-0.05347656 5.23996094 -0.04445312 4.04242188 -0.03515625 2.80859375 C-0.02355469 1.88175781 -0.01195312 0.95492187 0 0 Z " fill="#FE9739" transform="translate(148,106)"/>
<path d="M0 0 C0.66 0 1.32 0 2 0 C5.44572039 6.31715405 5.31461385 11.90370975 5 19 C4.34 19.33 3.68 19.66 3 20 C2.96261719 19.38253906 2.92523438 18.76507813 2.88671875 18.12890625 C2.41276584 12.0232776 1.19399627 6.71266953 -1 1 C-0.67 0.67 -0.34 0.34 0 0 Z " fill="#7A90D6" transform="translate(173,94)"/>
<path d="M0 0 C6.81598387 -0.33278764 11.92122066 -0.24201565 18 3 C17.67 3.99 17.34 4.98 17 6 C15.93072266 5.69255859 15.93072266 5.69255859 14.83984375 5.37890625 C9.56023251 3.89379353 4.45288884 2.60587654 -1 2 C-0.67 1.34 -0.34 0.68 0 0 Z " fill="#7AA4DF" transform="translate(144,79)"/>
<path d="M0 0 C0.66 0 1.32 0 2 0 C3.72350648 3.44701297 3.37111831 7.22370843 3 11 C1.6875 14.0625 1.6875 14.0625 0 16 C-0.99 16 -1.98 16 -3 16 C-2.690625 15.030625 -2.38125 14.06125 -2.0625 13.0625 C-0.82032903 8.76335509 -0.38315147 4.44657366 0 0 Z " fill="#809EDC" transform="translate(164,105)"/>
<path d="M0 0 C11.52164009 -0.18451025 11.52164009 -0.18451025 17 1 C16.01 1.495 16.01 1.495 15 2 C15 2.66 15 3.32 15 4 C9.72 3.67 4.44 3.34 -1 3 C-0.67 2.01 -0.34 1.02 0 0 Z " fill="#82AEE3" transform="translate(140,67)"/>
<path d="M0 0 C1.72283203 0.08701172 1.72283203 0.08701172 3.48046875 0.17578125 C4.64191406 0.22089844 5.80335938 0.26601562 7 0.3125 C8.32064453 0.39951172 8.32064453 0.39951172 9.66796875 0.48828125 C9.66796875 0.81828125 9.66796875 1.14828125 9.66796875 1.48828125 C5.21296875 1.98328125 5.21296875 1.98328125 0.66796875 2.48828125 C3.63796875 2.98328125 3.63796875 2.98328125 6.66796875 3.48828125 C6.66796875 3.81828125 6.66796875 4.14828125 6.66796875 4.48828125 C1.71796875 4.81828125 -3.23203125 5.14828125 -8.33203125 5.48828125 C-3.33203125 0.48828125 -3.33203125 0.48828125 0 0 Z " fill="#93BEEA" transform="translate(143.33203125,77.51171875)"/>
<path d="M0 0 C0.33 0 0.66 0 1 0 C1 4.95 1 9.9 1 15 C-0.32 15.33 -1.64 15.66 -3 16 C-3 11.05 -3 6.1 -3 1 C-2.67 1 -2.34 1 -2 1 C-1.67 3.97 -1.34 6.94 -1 10 C-0.67 6.7 -0.34 3.4 0 0 Z " fill="#9CACE0" transform="translate(178,103)"/>
<path d="M0 0 C1.74690919 0.2143934 3.4974023 0.40107653 5.25 0.5625 C6.14203125 0.64628906 7.0340625 0.73007813 7.953125 0.81640625 C8.62859375 0.87699219 9.3040625 0.93757813 10 1 C10 1.33 10 1.66 10 2 C9.14277344 2.06058594 8.28554687 2.12117188 7.40234375 2.18359375 C1.56395127 2.61143536 -4.22057272 3.059163 -10 4 C-7.0404579 -0.36884786 -5.08868605 -1.42074629 0 0 Z " fill="#8FBFEB" transform="translate(140,69)"/>
<path d="M0 0 C0.33 0.66 0.66 1.32 1 2 C1.66 2 2.32 2 3 2 C2.34 4.31 1.68 6.62 1 9 C-0.32 9.33 -1.64 9.66 -3 10 C-2.21302675 6.58978257 -1.12880057 3.31114834 0 0 Z " fill="#899EDB" transform="translate(174,117)"/>
<path d="M0 0 C4 1 4 1 5.8125 3.9375 C6.204375 4.948125 6.59625 5.95875 7 7 C6.67 7.66 6.34 8.32 6 9 C5.01 9 4.02 9 3 9 C2.01 6.03 1.02 3.06 0 0 Z " fill="#8FCEF1" transform="translate(116,117)"/>
<path d="M0 0 C0 1.98 0 3.96 0 6 C-1.65 6 -3.3 6 -5 6 C-5 5.01 -5 4.02 -5 3 C-1.55555556 0 -1.55555556 0 0 0 Z " fill="#FC5A0D" transform="translate(142,114)"/>
<path d="M0 0 C0.8971875 0.309375 0.8971875 0.309375 1.8125 0.625 C-0.1704823 2.6079823 -1.69968307 3.41878573 -4.1875 4.625 C-5.1775 5.285 -6.1675 5.945 -7.1875 6.625 C-4.6484375 -0.796875 -4.6484375 -0.796875 0 0 Z " fill="#FC8048" transform="translate(142.1875,99.375)"/>
<path d="M0 0 C0.66 0.99 1.32 1.98 2 3 C1 5 1 5 -1 7 C-1.66 6.34 -2.32 5.68 -3 5 C-3 3.68 -3 2.36 -3 1 C-2.01 0.67 -1.02 0.34 0 0 Z " fill="#A0CEF0" transform="translate(130,114)"/>
<path d="M0 0 C2 3 2 3 1.625 5.1875 C1.41875 5.785625 1.2125 6.38375 1 7 C0.34 7 -0.32 7 -1 7 C-1.99 7.495 -1.99 7.495 -3 8 C-1.125 2.25 -1.125 2.25 0 0 Z " fill="#FC722B" transform="translate(141,109)"/>
</svg>
